<?xml version="1.0" encoding="iso-8859-1"?>
<!-- Generator: Adobe Illustrator 19.0.0, SVG Export Plug-In . SVG Version: 6.00 Build 0)  -->
<svg version="1.1" id="Capa_1" xmlns="http://www.w3.org/2000/svg" xmlns:xlink="http://www.w3.org/1999/xlink" x="0px" y="0px"
	 viewBox="0 0 508.067 508.067" style="enable-background:new 0 0 508.067 508.067;" xml:space="preserve">
<g>
	<path style="fill:#FF7058;" d="M207.833,416.967c-3.8,1.6-7.4,2.9-11,3.5c-0.3,0.1-0.6,0.1-1,0.1c-1.3,0.2-2.7,0.3-4,0.3
		c-0.4,0-0.9,0-1.3,0c-1.6-0.1-3.2-0.3-4.7-0.8c-12.2-4-18.8-19.2-25.7-33.6c-1.1-2.2-2.2-4.4-3.3-6.6c-3.8-7.2-7.9-13.7-13.2-17.6
		c-2-1.4-4.2-2.5-6.7-3.5c-0.5-0.2-1.1-0.4-1.6-0.6c-2.4-0.9-5-1.6-7.8-2.2c-0.2,0-0.4-0.1-0.6-0.1c-2.9-0.6-5.9-1.1-9-1.6
		c-0.1,0-0.2,0-0.3,0c-3.9-0.6-7.9-1.1-11.8-1.7c-1.7-0.3-3.4-0.5-5.1-0.8c-1.1-0.2-2.2-0.4-3.3-0.6c-0.2,0-0.4-0.1-0.6-0.1
		l-6.1,10.3l-48.1,80.9l86.7-19.7l24.3,85.5l45.3-76.3L207.833,416.967L207.833,416.967z"/>
	<path style="fill:#FF7058;" d="M417.133,361.167l-6.1-10.2c-0.2,0-0.4,0.1-0.6,0.1c-1.1,0.2-2.2,0.4-3.3,0.6
		c-1.7,0.3-3.4,0.6-5.1,0.8c-3.9,0.6-7.9,1.1-11.8,1.7c-0.1,0-0.2,0-0.3,0c-3.1,0.4-6.1,1-9.1,1.6c-0.2,0-0.4,0.1-0.6,0.1
		c-2.7,0.6-5.3,1.3-7.8,2.2c-0.5,0.2-1.1,0.4-1.6,0.6c-2.4,1-4.7,2.1-6.7,3.5c-2.1,1.6-4.1,3.5-5.9,5.8
		c-12.6,15.8-18.3,46.1-36.3,51.9c-1.5,0.5-3.1,0.7-4.7,0.8c-0.4,0-0.9,0-1.3,0c-1.3,0-2.6-0.1-4-0.3c-0.3,0-0.6-0.1-1-0.1
		c-3.5-0.6-7.2-1.8-10.9-3.4l8.7,14.7l45.3,76.3l24.2-85.5l86.7,19.7L417.133,361.167z"/>
</g>
<path style="fill:#FFD15C;" d="M432.533,152.467c-6.7-20.6,12.2-54.3-0.3-71.5c-12.6-17.3-50.6-9.7-67.9-22.3
	c-17.1-12.5-21.6-51-42.2-57.7c-19.9-6.5-46.1,21.9-68.1,21.9s-48.2-28.3-68.1-21.9c-20.6,6.7-25.1,45.2-42.2,57.7
	c-17.3,12.6-55.3,5-67.9,22.3c-12.5,17.1,6.4,50.9-0.3,71.5c-6.4,19.8-41.8,36-41.8,58s35.3,38.1,41.8,58
	c6.7,20.6-12.2,54.3,0.3,71.5c12.6,17.3,50.6,9.7,67.9,22.3c17.1,12.5,21.6,51,42.2,57.7c19.9,6.4,46.1-22,68.1-22
	s48.2,28.3,68.1,21.9c20.6-6.7,25.1-45.2,42.2-57.7c17.3-12.6,55.3-5,67.9-22.3c12.5-17.1-6.4-50.9,0.3-71.5
	c6.4-19.8,41.8-36,41.8-58C474.233,188.467,438.933,172.267,432.533,152.467z"/>
<g>
	<path style="fill:#F1543F;" d="M185.933,419.867c-20.6-6.7-25.1-45.2-42.2-57.7c-11.1-8.1-30.7-7.9-46.7-11.3l-6.1,10.3
		c6.4,1.7,13.2,2.6,19.7,3.4c10.3,1.4,21,2.8,26.4,6.8c5.3,3.9,9.9,13.5,14.3,22.7c7,14.7,15,31.4,31,36.6c3.1,1,6.4,1.5,9.8,1.5
		c2.3,0,4.6-0.2,6.9-0.6l8.7-14.7C200.133,420.267,192.633,422.067,185.933,419.867z"/>
	<path style="fill:#F1543F;" d="M364.333,362.167c-17.1,12.5-21.6,51-42.2,57.7c-6.7,2.2-14.1,0.3-21.9-3l8.7,14.7
		c2.3,0.4,4.6,0.6,6.9,0.6c3.4,0,6.7-0.5,9.8-1.5c16-5.2,24-21.9,31-36.6c4.4-9.3,9-18.9,14.3-22.8c5.4-3.9,16.1-5.3,26.4-6.7
		c6.5-0.9,13.3-1.8,19.8-3.5l-6.1-10.3C395.033,354.267,375.433,354.167,364.333,362.167z"/>
</g>
<path style="fill:#F8B64C;" d="M385.833,210.467c0,70.8-55.8,128.5-125.7,131.6c-2,0.1-4.1,0.2-6.1,0.2
	c-71.8,0-130.2-57.4-131.8-128.8v-0.6c-0.1-0.7-0.1-1.6-0.1-2.4c0-72.8,59.1-131.8,131.9-131.8
	C326.833,78.567,385.833,137.567,385.833,210.467z"/>
<path style="fill:#FFFFFF;" d="M270.233,142.767v108.5c0,8.2,0.4,13.4,1.1,15.6s2.2,4.1,4.5,5.5s5.9,2.2,11,2.2h3v3.6h-69.8v-3.6
	h3.5c5.7,0,9.7-0.7,12.1-2c2.4-1.3,4-3.1,4.9-5.4s1.3-7.6,1.3-15.9v-68.8c0-6.1-0.3-10-0.9-11.5c-0.6-1.5-1.7-2.8-3.3-3.9
	c-1.6-1.1-3.4-1.6-5.5-1.6c-3.3,0-7.4,1-12.1,3.1l-1.8-3.5l48.8-22.3L270.233,142.767L270.233,142.767z"/>
<g>
</g>
<g>
</g>
<g>
</g>
<g>
</g>
<g>
</g>
<g>
</g>
<g>
</g>
<g>
</g>
<g>
</g>
<g>
</g>
<g>
</g>
<g>
</g>
<g>
</g>
<g>
</g>
<g>
</g>
</svg>
