<?xml version="1.0" encoding="iso-8859-1"?>
<!-- Generator: Adobe Illustrator 18.0.0, SVG Export Plug-In . SVG Version: 6.00 Build 0)  -->
<!DOCTYPE svg PUBLIC "-//W3C//DTD SVG 1.1//EN" "http://www.w3.org/Graphics/SVG/1.1/DTD/svg11.dtd">
<svg xmlns="http://www.w3.org/2000/svg" xmlns:xlink="http://www.w3.org/1999/xlink" version="1.1" id="Capa_1" x="0px" y="0px" viewBox="0 0 337.854 337.854" style="enable-background:new 0 0 337.854 337.854;" xml:space="preserve" width="512px" height="512px">
<g>
	<path d="M296.759,106.162h-62.672V10c0-5.523-4.479-10-10-10H41.095c-5.522,0-10,4.477-10,10v317.854c0,5.523,4.477,10,10,10   h182.992c5.521,0,10-4.477,10-10V223.587h62.672c5.523,0,10-4.477,10-10v-97.425C306.759,110.639,302.281,106.162,296.759,106.162z    M142.591,302.594c0,5.523-4.478,10-10,10c-5.522,0-10-4.477-10-10v-3.364h20V302.594z M214.087,279.229H51.095V58.624h162.992   v47.538h-85.328c-5.522,0-10,4.477-10,10v72.764l-17.869,53.886c-1.279,3.859-0.096,8.108,2.995,10.749   c1.851,1.582,4.164,2.398,6.499,2.398c1.564,0,3.137-0.366,4.585-1.114l60.551-31.259h38.567V279.229z M286.759,203.587H173.091   c-1.596,0-3.169,0.382-4.587,1.114l-40.909,21.118l10.656-32.131c0.336-1.015,0.508-2.078,0.508-3.147v-64.379h148V203.587z" fill="#006DF0"/>
	<g>
		<path d="M199.671,144.586c-0.354-0.936-1.249-1.556-2.248-1.556c-0.003,0-0.005,0-0.005,0l-4.05,0.009    c-1.002,0.002-1.896,0.626-2.247,1.565l-14.073,37.81c-0.273,0.737-0.17,1.563,0.277,2.209c0.451,0.646,1.188,1.032,1.976,1.032    h3.661c1.004,0,1.902-0.623,2.253-1.564l4.161-11.182h12.164l4.218,11.191c0.352,0.936,1.247,1.555,2.248,1.555h3.668h0.014    c1.327,0,2.402-1.076,2.402-2.402c0-0.388-0.093-0.755-0.256-1.08L199.671,144.586z M192.441,164.67l2.98-8.002l3.015,8.002    H192.441z" fill="#006DF0"/>
		<path d="M235.199,142.866H219.98c-1.327,0-2.403,1.076-2.403,2.402v37.754c0,1.327,1.076,2.403,2.403,2.403h15.219    c11.965,0,21.698-9.535,21.698-21.255C256.897,152.423,247.164,142.866,235.199,142.866z M235.199,177.188h-9.384v-26.084h9.384    c7.423,0,13.461,5.862,13.461,13.066C248.66,171.348,242.622,177.188,235.199,177.188z" fill="#006DF0"/>
	</g>
</g>
<g>
</g>
<g>
</g>
<g>
</g>
<g>
</g>
<g>
</g>
<g>
</g>
<g>
</g>
<g>
</g>
<g>
</g>
<g>
</g>
<g>
</g>
<g>
</g>
<g>
</g>
<g>
</g>
<g>
</g>
</svg>
