<?xml version="1.0" encoding="utf-8"?>
<!-- Generator: Adobe Illustrator 23.0.1, SVG Export Plug-In . SVG Version: 6.00 Build 0)  -->
<svg version="1.1" id="Capa_1" xmlns="http://www.w3.org/2000/svg" xmlns:xlink="http://www.w3.org/1999/xlink" x="0px" y="0px"
	 viewBox="0 0 596.61 321.68" style="enable-background:new 0 0 596.61 321.68;" xml:space="preserve">
<style type="text/css">
	.st0{
      fill:#2db6d8;
      fill-opacity: .36;
    }
</style>
<title>elephant</title>
<g>
	<path class="st0" d="M430.9,257.82c5.13,0.5,13.13,0.75,14.75-0.25c2-1.22,2.95-3.61,2.35-5.87c-0.63-2.88-5.13-1.88-5.13-1.88
		L385.25,265c-3.73,1-7.36,1.86-9.79-2.12c-2.57-4.2-3.82-9.15-0.72-13.15c1.85-2.39,5.89-3.09,9.54-4.83
		c-16.13-23.17-30-47.79-39.79-75.39c-1.65,6.11-3.82,12.13-4.86,18.34c-3.78,22.66-7,45.42-10.8,68.07
		c-2.83,16.73-6.92,33.18-17.83,47.83c52.07,1.54,103.5,1,154.56,6.94l0.23,2.59c-2.54,0.6-5,1.58-7.61,1.74
		c-24.42,1.5-48.83,3.34-73.28,4.14c-33.12,1.09-66.27,1.51-99.4,1.92c-32.65,0.41-65.3,0.71-98,0.55c-28-0.13-55.97-0.66-83.91-1.6
		c-28.12-0.9-56.22-2.35-84.32-3.74C13.85,316,8.42,315,3,314.16c-1.04-0.27-2.05-0.66-3-1.16l0.16-1.76
		c25.58-4.66,51.64-4,78.42-5.82C58.31,287.21,52.92,263.08,48.64,239c-4.89-27.51-8.35-55.3-11.77-83
		c-1.12-9-0.18-18.28-0.83-27.75C25.34,138.4,17.3,150.58,9,162.55L7.55,162c1.54-5.94,2.71-12,4.69-17.78
		C27.44,99.93,52.9,62.65,90.58,34.59c23.41-17.43,50.83-26,79.36-31c45.19-7.83,89.21-2.49,132.36,12.15
		c1.23,0.41,2.39,1,4.28,1.88l-15.89,5.82c0.16,0.74,0.33,1.47,0.49,2.21c8.16-0.7,16.56-0.41,24.44-2.27
		c29.2-6.92,49.08,6.68,65.62,28.45c10.94,14.4,16.68,31,20.08,48.49c2.51,12.9,4.46,31.65,7.12,44.52
		c0.65,3.13,32.41,28.06,33.72,29.79l-28.72-7.54c4.93,23.31,10.5,45.37,21.14,66c0.61-0.46,1.06-0.66,1.05-0.82
		c-0.72-10.25-0.72-10,9.36-10c8.66,0,12,3.53,17.41,5.75c0,0,17.88-4.09,19.79-4.25s7.42-3,8.25,5.83s-1.83,9.17-1.83,9.17
		l-12.89,3.17c0.35,2,0.75,3.78,0.95,5.57c1.72,15.69-6.67,27.06-22.7,29.89c-15.84,2.81-30.35-1.55-44-9.45
		c-3.34-1.93-2.59-5-0.2-6.1C423.75,255.24,425.78,257.32,430.9,257.82z M217.59,303.65h55.2c-3.11-3.71-5.5-6-7.26-8.75
		c-9.08-14.13-18.43-28.11-26.85-42.63c-7.59-13.09-18.57-20.88-32.81-24.93c-22.79-6.49-43,2.09-53.59,23.14
		c-1.93,3.87-3.64,7.85-5.12,11.91c-5.16,13.93-8,28.79-17,41.26H217.59z"/>
	<path class="st0" d="M594.78,198.53c-2.5-6.33-4-10.17-8.67-13s-18.39-9-39.16-5.83c-17.5,2.66-48,14-51.67,44l-4,0.5
		c1.69,2.97,2.3,6.43,1.72,9.8l4.83-0.67c3.08,9.44,11.45,16.18,21.33,17.17c17.34,2.17,38.34-3.5,38.34-3.5s34-11.17,39.83-35
		C597.22,207.4,596.36,202.85,594.78,198.53z M553.61,236.86c-42.66,13.67-54.5-6.16-54.5-6.16v-5.17c0,0,11.5-24.83,40-32.67
		s46.5-3,54.5,6.5C593.61,199.36,596.28,223.2,553.61,236.86L553.61,236.86z"/>
</g>
</svg>
