<svg id="_16" data-name="16" xmlns="http://www.w3.org/2000/svg" viewBox="0 0 24.94 24.98"><defs><style>.cls-1,.cls-2{fill:#262626;}.cls-2{fill-rule:evenodd;}</style></defs><title>linkedin icon</title><path class="cls-1" d="M12.49,0A12.5,12.5,0,1,1,3.66,3.68,12.45,12.45,0,0,1,12.49,0Zm8.14,4.35A11.51,11.51,0,0,0,4.35,20.65,11.51,11.51,0,0,0,20.63,4.37Z"/><path class="cls-2" d="M6.85,12.63v5.52H9.48V10.63H6.85Zm11.21.31c-.17-1.43-.82-2.31-2.74-2.31a2.34,2.34,0,0,0-2.21,1h0v-1H11v7.52h2.19V14.42c0-1,.2-1.93,1.4-1.93s1.3,1.12,1.3,2v3.66h2.26V14a7.26,7.26,0,0,0-.07-1.08ZM8.17,6.87A1.32,1.32,0,1,0,9.48,8.19,1.32,1.32,0,0,0,8.17,6.87Z"/></svg>