<svg id="_16" data-name="16" xmlns="http://www.w3.org/2000/svg" viewBox="0 0 24.98 24.99"><defs><style>.cls-1,.cls-2{fill:#262626;}.cls-2{fill-rule:evenodd;}</style></defs><title>twitter icon</title><path class="cls-1" d="M12.49,0A12.5,12.5,0,1,1,3.66,3.66,12.45,12.45,0,0,1,12.49,0Zm8.14,4.35A11.53,11.53,0,1,0,24,12.5a11.48,11.48,0,0,0-3.37-8.15Z"/><path class="cls-2" d="M18.87,8.6a5.73,5.73,0,0,1-1.5.41,2.55,2.55,0,0,0,1.15-1.43,5.25,5.25,0,0,1-1.67.63,2.58,2.58,0,0,0-1.91-.82A2.61,2.61,0,0,0,12.32,10a2.7,2.7,0,0,0,.08.58A7.36,7.36,0,0,1,7,7.86a2.54,2.54,0,0,0-.36,1.3A2.57,2.57,0,0,0,7.81,11.3,2.48,2.48,0,0,1,6.63,11v0a2.55,2.55,0,0,0,.17.92,2.61,2.61,0,0,0,1.93,1.59,2.3,2.3,0,0,1-.69.1,2.73,2.73,0,0,1-.5-.05A2.64,2.64,0,0,0,10,15.37a5.25,5.25,0,0,1-3.25,1.1l-.63,0a7.63,7.63,0,0,0,4,1.15,7.28,7.28,0,0,0,7.27-5.76,7.05,7.05,0,0,0,.18-1.56V9.94a5.7,5.7,0,0,0,1.3-1.34Z"/></svg>