<svg id="_16" data-name="16" xmlns="http://www.w3.org/2000/svg" viewBox="0 0 24.98 24.98"><defs><style>.cls-1,.cls-2{fill:#262626;}.cls-2{fill-rule:evenodd;}</style></defs><title>facebook icon</title><path class="cls-1" d="M12.49,0A12.5,12.5,0,1,1,3.66,3.66,12.45,12.45,0,0,1,12.49,0Zm8.15,4.35A11.55,11.55,0,1,0,24,12.49a11.53,11.53,0,0,0-3.36-8.14Z"/><path class="cls-2" d="M13.44,9.94v-1a.53.53,0,0,1,.56-.6h1.44V6.12h-2a2.48,2.48,0,0,0-2.68,2.67V9.94H9.51v2.55H10.8v6.38h2.55V12.49h1.89l.08-1,.15-1.55Z"/></svg>