<?xml version="1.0" encoding="utf-8"?>
<svg xmlns="http://www.w3.org/2000/svg" xmlns:xlink="http://www.w3.org/1999/xlink" x="0px" y="0px"
	 viewBox="0 115 300 190" style="enable-background:new 0 115 300 190;" xml:space="preserve" preserveAspectRatio="none">
<style type="text/css">
	.st0{fill:#242A31;enable-background:new    ;}
	.st1{opacity:0.5;clip-path:url(#SVGID_2_);}
	.st2{fill:none;stroke:#95CFE8;stroke-linecap:round;stroke-linejoin:round;stroke-miterlimit:10;enable-background:new    ;}

		.st3{opacity:0.4;clip-path:url(#SVGID_2_);fill:none;stroke:#95CFE8;stroke-linecap:round;stroke-linejoin:round;stroke-miterlimit:10;}

		.st4{opacity:0.2;clip-path:url(#SVGID_2_);fill:none;stroke:#95CFE8;stroke-linecap:round;stroke-linejoin:round;stroke-miterlimit:10;}

		.st5{opacity:0.5;clip-path:url(#SVGID_2_);fill:none;stroke:#95CFE8;stroke-linecap:round;stroke-linejoin:round;stroke-miterlimit:10;enable-background:new    ;}

		.st6{opacity:0.15;clip-path:url(#SVGID_2_);fill:none;stroke:#95CFE8;stroke-linecap:round;stroke-linejoin:round;stroke-miterlimit:10;}

		.st7{opacity:0.02;clip-path:url(#SVGID_2_);fill:none;stroke:#95CFE8;stroke-linecap:round;stroke-linejoin:round;stroke-miterlimit:10;}

		.st8{opacity:0.05;clip-path:url(#SVGID_2_);fill:none;stroke:#95CFE8;stroke-linecap:round;stroke-linejoin:round;stroke-miterlimit:10;}
	.st9{opacity:0.45;clip-path:url(#SVGID_2_);fill:#95CFE8;}
	.st10{opacity:0.15;clip-path:url(#SVGID_2_);fill:#95CFE8;}
	.st11{opacity:0.6;clip-path:url(#SVGID_2_);fill:#95CFE8;}
	.st12{opacity:0.55;clip-path:url(#SVGID_2_);fill:#95CFE8;}
	.st13{opacity:0.35;clip-path:url(#SVGID_2_);fill:#95CFE8;}
</style>
<g id="bg">
	<path class="st0" d="M5.93,324h288.14c3.28,0,5.93-2.66,5.93-5.93V5.93c0-3.28-2.66-5.93-5.93-5.93H5.93C2.66,0,0,2.66,0,5.93
		v312.14C0,321.34,2.66,324,5.93,324z"/>
</g>
<g id="print">
	<g>
		<defs>
			<path id="SVGID_1_" d="M5.93,324h288.14c3.28,0,5.93-2.66,5.93-5.93V5.93c0-3.28-2.66-5.93-5.93-5.93H5.93C2.66,0,0,2.66,0,5.93
				v312.14C0,321.34,2.66,324,5.93,324z"/>
		</defs>
		<clipPath id="SVGID_2_">
			<use xlink:href="#SVGID_1_"  style="overflow:visible;"/>
		</clipPath>
		<g class="st1">
			<polyline class="st2" points="10.62,75.5 70.42,120.74 115.27,105.79 			"/>
			<line class="st2" x1="70.42" y1="120.74" x2="70.42" y2="48.46"/>
		</g>
		<line class="st3" x1="70.42" y1="120.74" x2="72.19" y2="35.6"/>
		<line class="st4" x1="70.42" y1="48.46" x2="115.27" y2="105.79"/>
		<polyline class="st4" points="72.19,35.6 10.62,75.5 148.09,15.17 		"/>
		<line class="st4" x1="10.62" y1="75.5" x2="93.9" y2="48.08"/>
		<polyline class="st4" points="115.27,105.79 10.62,75.5 62.27,95 69.62,119.11 93.9,48.08 62.27,95 107.92,169.02 70.42,47.22
			62.27,95 		"/>
		<line class="st4" x1="62.27" y1="95" x2="115.27" y2="105.79"/>
		<path class="st4" d="M72.19,35.6c0.93,0.59,21.71,12.48,21.71,12.48L81.37,17.8"/>
		<line class="st4" x1="72.19" y1="35.6" x2="115.27" y2="105.79"/>
		<polyline class="st4" points="72.19,35.6 108.41,170.18 62.27,95 182.87,177.76 		"/>
		<path class="st4" d="M115.27,105.79c-0.42,0.59-6.87,64.38-6.87,64.38"/>
		<line class="st4" x1="62.27" y1="95" x2="61.65" y2="130.23"/>
		<polyline class="st4" points="70.42,48.46 202.41,132.01 182.87,177.76 234.73,125.52 212.79,104.29 115.27,105.79 182.87,177.76
			70.42,48.46 		"/>
		<polyline class="st4" points="182.87,177.76 169.12,227.45 115.27,105.79 		"/>
		<polyline class="st5" points="107.92,169.02 182.87,177.76 61.65,130.23 		"/>
		<polyline class="st5" points="61.65,130.23 107.92,169.02 123.72,180.58 169.12,227.45 		"/>
		<polyline class="st5" points="61.65,130.23 133.67,219.05 123.72,180.58 		"/>
		<polyline class="st5" points="61.65,130.23 177.01,248.29 107.92,169.02 		"/>
		<line class="st5" x1="176.58" y1="247.65" x2="123.28" y2="179.94"/>
		<line class="st5" x1="149.07" y1="248.29" x2="123.72" y2="180.58"/>
		<line class="st5" x1="169.12" y1="227.45" x2="107.92" y2="169.02"/>
		<polyline class="st5" points="107.92,169.02 192.21,200.39 123.28,179.94 		"/>
		<line class="st4" x1="-3.61" y1="146.74" x2="123.28" y2="179.94"/>
		<line class="st4" x1="192.21" y1="200.39" x2="300.78" y2="234.88"/>
		<path class="st4" d="M182.87,177.76c2.81-0.3,118.94-12.65,118.94-12.65"/>
		<path class="st4" d="M192.21,200.39c1.25,0,109.6-28.96,109.6-28.96"/>
		<polyline class="st4" points="177.01,248.29 192.21,200.39 224.1,236.87 182.87,177.76 		"/>
		<path class="st4" d="M149.07,248.29c0,0,43.29-48.83,43.14-47.89c-0.16,0.94-51.44,92.61-51.44,92.61l36.25-44.71l47.09-11.41
			L140.77,293l85.53-15.89"/>
		<polyline class="st4" points="224.1,236.87 169.12,227.45 226.3,277.11 177.01,248.29 252.22,315.19 140.77,293 221.13,297.07
			"/>
		<path class="st4" d="M252.22,315.19c-0.78-0.31-103.15-66.9-103.15-66.9l77.23,28.83"/>
		<polyline class="st4" points="140.77,293 133.67,219.05 149.07,248.29 140.77,293 		"/>
		<line class="st4" x1="149.07" y1="248.29" x2="161.55" y2="324.92"/>
		<line class="st4" x1="182.87" y1="177.76" x2="226.3" y2="277.11"/>
		<line class="st4" x1="133.67" y1="219.05" x2="177.01" y2="248.29"/>
		<line class="st4" x1="133.67" y1="219.05" x2="169.12" y2="227.45"/>
		<polyline class="st4" points="-2.82,162 133.67,219.05 48.15,240.07 58.15,255.23 133.67,219.05 		"/>
		<polyline class="st4" points="-2.17,171.43 48.15,240.07 -2.17,179.94 		"/>
		<line class="st4" x1="-2.17" y1="202" x2="48.15" y2="240.07"/>
		<polyline class="st4" points="48.15,240.07 68.31,298.63 58.15,255.23 86.06,326.21 48.15,240.07 		"/>
		<polyline class="st4" points="48.15,240.07 -4.88,246.69 58.15,255.23 		"/>
		<path class="st4" d="M58.15,255.23c-0.28,0.97-14.33,43.66-14.33,43.66l24.49-0.27l11.63,26.29"/>
		<line class="st4" x1="68.31" y1="298.63" x2="82.71" y2="324.92"/>
		<polyline class="st6" points="-0.81,246.69 31.23,316.61 68.31,298.63 		"/>
		<polyline class="st4" points="61.65,324.92 43.83,298.9 68.31,324.92 		"/>
		<line class="st6" x1="-2.17" y1="322.28" x2="48.15" y2="240.07"/>
		<line class="st4" x1="43.83" y1="298.9" x2="31.23" y2="316.61"/>
		<line class="st4" x1="130.35" y1="322.28" x2="149.07" y2="248.29"/>
		<line class="st7" x1="149.07" y1="248.29" x2="31.23" y2="316.61"/>
		<path class="st8" d="M-3.61,275.44c0.27-0.17,51.76-35.37,51.76-35.37"/>
		<line class="st8" x1="-2.82" y1="296.07" x2="43.83" y2="298.9"/>
		<polyline class="st8" points="-3.61,304.04 31.23,316.61 58.15,255.23 		"/>
		<polyline class="st8" points="41.4,326.21 31.23,316.61 48.15,327.1 		"/>
		<line class="st7" x1="130.35" y1="322.28" x2="252.22" y2="315.19"/>
		<polyline class="st7" points="235.68,326.21 221.13,297.07 240.66,326.21 		"/>
		<polyline class="st7" points="301.81,311.91 221.13,297.07 310.2,293 		"/>
		<line class="st7" x1="221.13" y1="297.07" x2="307.08" y2="273.96"/>
		<path class="st8" d="M226.3,277.11c1.84,1.84,25.92,38.07,25.92,38.07"/>
		<line class="st8" x1="226.3" y1="277.11" x2="221.13" y2="297.07"/>
		<path class="st7" d="M226.3,277.11c0-0.22-2.2-40.24-2.2-40.24l78.95,65.58"/>
		<path class="st7" d="M304.69,262.96c0,0-81.09-25.96-80.59-26.09c0.5-0.13,90.54-1.01,90.54-1.01"/>
		<path class="st8" d="M224.1,236.87c1.31-0.92,77.71-56.93,77.71-56.93"/>
		<path class="st7" d="M303.71,161.25c-1.44-0.65-101.3-29.24-101.3-29.24l32.33-6.49l71.72-28.68l-104.05,35.17"/>
		<polyline class="st7" points="301.81,158.24 234.73,125.52 305.54,145.41 		"/>
		<line class="st7" x1="212.79" y1="104.29" x2="301.81" y2="158.24"/>
		<polyline class="st7" points="202.41,132.01 212.79,104.29 256.27,30.4 234.73,125.52 		"/>
		<polyline class="st7" points="301.13,84.6 212.79,104.29 302.92,96.84 		"/>
		<polyline class="st7" points="202.41,132.01 152.58,41.88 212.79,104.29 		"/>
		<line class="st7" x1="152.58" y1="41.88" x2="247.12" y2="22.68"/>
		<path class="st7" d="M-6.45,118.15c1.04,0,76.87,2.59,76.87,2.59"/>
		<polyline class="st7" points="-3.04,-1.01 72.19,35.6 81.37,17.8 -8.24,-1.9 		"/>
		<polyline class="st7" points="72.19,-7.29 81.37,17.8 152.58,41.88 148.09,15.17 81.37,17.8 		"/>
		<path class="st7" d="M78.43-1.9c0.72-0.36,74.14,43.79,74.14,43.79L170.67-1.9"/>
		<path class="st8" d="M148.09,15.17c0.18,0.9-32.82,90.62-32.82,90.62"/>
		<polyline class="st7" points="146.27,-5.85 148.09,15.17 160.8,-7.29 		"/>
		<path class="st7" d="M-3.22,10.42C-3.02,11.2,10.62,75.5,10.62,75.5l-23.52-3.1"/>
		<path class="st7" d="M88.77-3.13c1.74,0.58,59.32,18.3,59.32,18.3"/>
		<circle class="st9" cx="72.19" cy="36.08" r="3.79"/>
		<circle class="st10" cx="81.37" cy="18.28" r="3.79"/>
		<circle class="st9" cx="93.9" cy="48.46" r="3.79"/>
		<circle class="st9" cx="169.12" cy="227.45" r="3.79"/>
		<circle class="st10" cx="212.79" cy="104.29" r="3.79"/>
		<circle class="st10" cx="226.3" cy="277.11" r="3.79"/>
		<circle class="st9" cx="182.87" cy="177.76" r="3.79"/>
		<circle class="st11" cx="123.72" cy="180.58" r="3.79"/>
		<circle class="st9" cx="58.17" cy="255.23" r="3.79"/>
		<circle class="st9" cx="-1.14" cy="246.69" r="3.79"/>
		<circle class="st9" cx="48.15" cy="240.67" r="3.79"/>
		<circle class="st9" cx="67.91" cy="298.22" r="3.39"/>
		<circle class="st9" cx="44.19" cy="299.49" r="3.23"/>
		<circle class="st11" cx="107.92" cy="169.02" r="3.79"/>
		<circle class="st9" cx="61.96" cy="94.44" r="3.79"/>
		<circle class="st9" cx="70.42" cy="47.89" r="3.23"/>
		<circle class="st9" cx="192.21" cy="200.39" r="3.23"/>
		<circle class="st10" cx="224.1" cy="236.87" r="3.23"/>
		<circle class="st9" cx="177.01" cy="248.37" r="3.23"/>
		<circle class="st9" cx="149.07" cy="249.41" r="3.23"/>
		<circle class="st10" cx="130.35" cy="322.28" r="3.23"/>
		<circle class="st9" cx="115.27" cy="105.79" r="3.23"/>
		<circle class="st9" cx="10.62" cy="75.88" r="3.79"/>
		<circle class="st12" cx="70.42" cy="121.17" r="2.07"/>
		<circle class="st12" cx="133.67" cy="219.05" r="2.07"/>
		<circle class="st10" cx="202.41" cy="132.01" r="2.59"/>
		<circle class="st10" cx="152.58" cy="41.88" r="2.59"/>
		<circle class="st10" cx="148.09" cy="15.17" r="2.59"/>
		<circle class="st10" cx="234.73" cy="125.52" r="2.59"/>
		<circle class="st13" cx="140.77" cy="293" r="2.59"/>
		<circle class="st10" cx="221.13" cy="297.07" r="2.59"/>
		<circle class="st10" cx="31.23" cy="316.61" r="2.59"/>
		<circle class="st12" cx="61.65" cy="130.23" r="2.07"/>
	</g>
</g>
</svg>
