<?xml version="1.0" encoding="utf-8"?>
<!-- Generator: Adobe Illustrator 23.0.1, SVG Export Plug-In . SVG Version: 6.00 Build 0)  -->
<svg version="1.1" id="Capa_1" xmlns="http://www.w3.org/2000/svg" xmlns:xlink="http://www.w3.org/1999/xlink" x="0px" y="0px"
	 viewBox="0 0 613.96 514.4" style="enable-background:new 0 0 613.96 514.4;" xml:space="preserve">
<style type="text/css">
	.st0{fill:#ffffff;}
</style>
<path class="st0" d="M436.62,364.12c5.12,0.5,13.12,0.75,14.75-0.25s3-3,2.38-5.88s-5.12-1.88-5.12-1.88l-57.65,15.14
	c-3.73,1-7.36,1.85-9.79-2.12c-2.57-4.2-3.82-9.15-0.72-13.15c1.86-2.39,5.89-3.09,9.54-4.83c-16.13-23.18-30-47.8-39.78-75.4
	c-1.65,6.11-3.83,12.13-4.86,18.34c-3.78,22.66-6.97,45.42-10.8,68.07c-2.84,16.77-6.92,33.22-17.84,47.87
	c52.07,1.54,103.5,1.02,154.56,6.94c0.08,0.86,0.15,1.73,0.23,2.59c-2.54,0.6-5.05,1.59-7.61,1.74c-24.42,1.5-48.83,3.34-73.28,4.14
	c-33.12,1.09-66.27,1.51-99.4,1.92c-32.65,0.4-65.3,0.71-97.95,0.55c-27.97-0.14-55.95-0.71-83.91-1.61
	c-28.12-0.9-56.22-2.35-84.32-3.73c-5.46-0.27-10.89-1.33-16.33-2.14c-1.03-0.15-1.99-0.79-2.99-1.21c0.05-0.58,0.11-1.17,0.16-1.75
	c25.57-4.66,51.64-4.01,78.42-5.83c-20.28-18.16-25.66-42.28-29.94-66.39c-4.89-27.51-8.34-55.3-11.77-83.04
	c-1.11-9.01-0.17-18.28-0.82-27.75c-10.7,10.21-18.75,22.39-27.05,34.36c-0.48-0.17-0.97-0.34-1.45-0.52
	c1.55-5.93,2.71-11.99,4.7-17.78c15.19-44.33,40.65-81.61,78.34-109.68c23.41-17.43,50.83-26.01,79.35-30.97
	c45.19-7.85,89.22-2.52,132.37,12.12c1.23,0.42,2.38,1.04,4.28,1.88c-5.75,2.11-10.83,3.96-15.9,5.82c0.17,0.74,0.33,1.47,0.5,2.21
	c8.16-0.7,16.55-0.41,24.43-2.27c29.2-6.92,49.08,6.69,65.62,28.45c10.94,14.4,16.68,30.99,20.08,48.49
	c2.51,12.91,4.46,31.65,7.12,44.53c0.65,3.13,32.41,28.06,33.73,29.79c-10.03-2.63-18.93-4.97-28.72-7.54
	c4.92,23.31,10.5,45.36,21.14,65.97c0.61-0.47,1.06-0.66,1.05-0.82c-0.72-10.25-0.72-10.03,9.36-10.04
	c8.67-0.01,12.03,3.52,17.42,5.74c0,0,17.88-4.08,19.79-4.25s7.42-3,8.25,5.83s-1.83,9.17-1.83,9.17l-12.89,3.17
	c0.35,2.03,0.75,3.79,0.95,5.57c1.72,15.69-6.67,27.06-22.7,29.89c-15.84,2.8-30.35-1.55-44-9.45c-3.34-1.93-2.58-4.99-0.2-6.1
	C429.47,361.54,431.5,363.62,436.62,364.12z M278.51,409.96c-3.11-3.72-5.51-6.03-7.26-8.76c-9.08-14.13-18.44-28.1-26.85-42.62
	c-7.59-13.1-18.58-20.89-32.81-24.94c-22.79-6.49-42.95,2.1-53.59,23.14c-1.95,3.85-3.61,7.86-5.11,11.91
	c-5.16,13.93-7.96,28.8-17.04,41.27C183.23,409.96,230.1,409.96,278.51,409.96z"/>
<path class="st0" d="M600.35,304.9c-2.5-6.33-4-10.17-8.67-13s-18.39-9-39.17-5.83c-17.5,2.67-48,14-51.67,44l-4,0.5
	c0,0,2.83,4.67,1.67,9.83l4.83-0.67c0,0,4,15,21.33,17.17c17.33,2.17,38.33-3.5,38.33-3.5s34-11.17,39.83-35
	C602.85,318.4,602.85,311.24,600.35,304.9z M559.18,343.24c-42.67,13.67-54.5-6.17-54.5-6.17v-5.17c0,0,11.5-24.83,40-32.67
	c28.5-7.83,46.5-3,54.5,6.5C599.18,305.74,601.85,329.57,559.18,343.24z"/>
</svg>
