<svg width="32" height="32" viewBox="0 0 32 32" fill="none" xmlns="http://www.w3.org/2000/svg">
<path d="M27.8 32H4.2C1.9 32 0 30.1576 0 27.9273V4.07273C0 1.84243 1.9 0 4.2 0H27.8C30.1 0 32 1.84243 32 4.07273V28.0242C32 30.2545 30.1 32 27.8 32Z" fill="#2DB6D8"/>
<g filter="url(#filter0_d)">
<path fill-rule="evenodd" clip-rule="evenodd" d="M15.9909 5.14479C15.9909 4.48255 15.4525 3.93936 14.7936 4.00546C8.75518 4.61118 4 9.74556 4 15.9366C4 22.5317 9.39593 27.9276 15.9909 27.9276C22.182 27.9276 27.3164 23.1724 27.9221 17.134C27.9882 16.4751 27.445 15.9366 26.7828 15.9366C26.1206 15.9366 25.5916 16.4762 25.5089 17.1333C24.9153 21.85 20.8619 25.5294 15.9909 25.5294C10.7149 25.5294 6.39819 21.2127 6.39819 15.9366C6.39819 11.0657 10.0776 7.01232 14.7943 6.41869C15.4514 6.33599 15.9909 5.80703 15.9909 5.14479ZM15.9909 9.94117C15.9909 9.27893 15.45 8.7316 14.797 8.84184C11.4029 9.41482 8.79638 12.3861 8.79638 15.9366C8.79638 19.8937 12.0339 23.1312 15.9909 23.1312C19.5415 23.1312 22.5128 20.5246 23.0858 17.1306C23.196 16.4776 22.6487 15.9366 21.9864 15.9366C21.3242 15.9366 20.8026 16.4819 20.6378 17.1233C20.1062 19.1923 18.2198 20.733 15.9909 20.733C13.3529 20.733 11.1946 18.5746 11.1946 15.9366C11.1946 13.7078 12.7353 11.8214 14.8042 11.2898C15.4457 11.125 15.9909 10.6034 15.9909 9.94117ZM13.5928 15.9367C13.5928 17.2557 14.6719 18.3349 15.9909 18.3349C17.3099 18.3349 18.3891 17.2557 18.3891 15.9367C18.3891 14.6177 17.3099 13.5385 15.9909 13.5385C14.6719 13.5385 13.5928 14.6177 13.5928 15.9367Z" fill="white"/>
</g>
<defs>
<filter id="filter0_d" x="4" y="4" width="23.9276" height="24.9276" filterUnits="userSpaceOnUse" color-interpolation-filters="sRGB">
<feFlood flood-opacity="0" result="BackgroundImageFix"/>
<feColorMatrix in="SourceAlpha" type="matrix" values="0 0 0 0 0 0 0 0 0 0 0 0 0 0 0 0 0 0 127 0"/>
<feOffset dy="1"/>
<feColorMatrix type="matrix" values="0 0 0 0 0 0 0 0 0 0 0 0 0 0 0 0 0 0 0.1 0"/>
<feBlend mode="normal" in2="BackgroundImageFix" result="effect1_dropShadow"/>
<feBlend mode="normal" in="SourceGraphic" in2="effect1_dropShadow" result="shape"/>
</filter>
</defs>
</svg>
