<svg width="32" height="32" viewBox="0 0 32 32" fill="none" xmlns="http://www.w3.org/2000/svg">
<path d="M27.8 32H4.2C1.9 32 0 30.1576 0 27.9273V4.07273C0 1.84243 1.9 0 4.2 0H27.8C30.1 0 32 1.84243 32 4.07273V28.0242C32 30.2545 30.1 32 27.8 32Z" fill="#2DB6D8"/>
<g filter="url(#filter0_d)">
<path fill-rule="evenodd" clip-rule="evenodd" d="M18 7H14.7C14.4 7 14.1 7.1 13.9 7.3C13.7 7.5 13.6 7.8 13.6 8.1V25.5C13.6 25.8 13.7 26.1 13.9 26.3C14.1 26.5 14.4 26.6 14.7 26.6H18C18.3 26.6 18.6 26.5 18.8 26.3C19 26.1 19.1 25.8 19.1 25.5V8.1C19.1 7.8 19 7.5 18.8 7.3C18.6 7.1 18.3 7 18 7ZM7.1 11.3H10.4C10.7 11.3 11 11.4 11.2 11.6C11.4 11.8 11.5 12.1 11.5 12.4V25.5C11.5 25.8 11.4 26.1 11.2 26.3C11 26.5 10.7 26.6 10.4 26.6H7.1C6.8 26.6 6.5 26.5 6.3 26.3C6.1 26.1 6 25.8 6 25.5V12.4C6 12.1 6.1 11.8 6.3 11.6C6.5 11.4 6.8 11.3 7.1 11.3ZM22.3 15.7H25.6C25.9 15.7 26.2 15.8 26.4 16C26.6 16.2 26.7 16.5 26.7 16.8V25.5C26.7 25.8 26.6 26.1 26.4 26.3C26.2 26.5 25.9 26.6 25.6 26.6H22.3C22 26.6 21.7 26.5 21.5 26.3C21.3 26.1 21.2 25.8 21.2 25.5V16.8C21.2 16.5 21.3 16.2 21.5 16C21.7 15.8 22 15.7 22.3 15.7Z" fill="white"/>
</g>
<defs>
<filter id="filter0_d" x="6" y="7" width="20.7" height="20.6" filterUnits="userSpaceOnUse" color-interpolation-filters="sRGB">
<feFlood flood-opacity="0" result="BackgroundImageFix"/>
<feColorMatrix in="SourceAlpha" type="matrix" values="0 0 0 0 0 0 0 0 0 0 0 0 0 0 0 0 0 0 127 0"/>
<feOffset dy="1"/>
<feColorMatrix type="matrix" values="0 0 0 0 0 0 0 0 0 0 0 0 0 0 0 0 0 0 0.1 0"/>
<feBlend mode="normal" in2="BackgroundImageFix" result="effect1_dropShadow"/>
<feBlend mode="normal" in="SourceGraphic" in2="effect1_dropShadow" result="shape"/>
</filter>
</defs>
</svg>
