<svg width="32" height="32" viewBox="0 0 32 32" fill="none" xmlns="http://www.w3.org/2000/svg">
<path d="M27.8 32H4.2C1.9 32 0 30.1631 0 27.9396V4.06042C0 1.83686 1.9 0 4.2 0H27.8C30.1 0 32 1.83686 32 4.06042V27.9396C32 30.1631 30.1 32 27.8 32Z" fill="#2DB6D8"/>
<g filter="url(#filter0_d)">
<path fill-rule="evenodd" clip-rule="evenodd" d="M8.20001 6.12206C8.20001 4.76603 9.31242 3.66675 10.6772 3.66675H20.5228C21.8909 3.66675 23 4.77454 23 6.12206V25.8781C23 27.2341 21.8876 28.3334 20.5228 28.3334H10.6772C9.30909 28.3334 8.20001 27.2256 8.20001 25.8781V6.12206ZM10.6667 6.13341V25.5584H20.5333V6.13341H10.6667Z" fill="white"/>
</g>
<path fill-rule="evenodd" clip-rule="evenodd" d="M13.043 17.6842L13.1964 17.5903L14.6832 18.4493C14.9192 18.5835 15.2024 18.6641 15.4738 18.6775C15.7571 18.7043 16.0285 18.6506 16.2173 18.5433L17.8457 17.5903L17.8575 17.6037C18.2823 17.8453 18.3413 18.2077 17.9991 18.409L16.1465 19.4962C15.8043 19.6976 15.1788 19.6573 14.7658 19.4157L13.1846 18.4896C12.7716 18.248 12.7008 17.8856 13.043 17.6842ZM13.043 15.5433L13.2436 15.4225L14.6832 16.2681C14.9192 16.4023 15.2024 16.4829 15.4738 16.4963C15.7571 16.5097 16.0285 16.4695 16.2173 16.3487L17.7985 15.4225L17.8575 15.4628C18.2823 15.7044 18.3413 16.0668 17.9991 16.2681L16.1465 17.3553C15.8043 17.5567 15.1788 17.5164 14.7658 17.2748L13.1846 16.3487C12.7716 16.107 12.7008 15.7446 13.043 15.5433ZM13.043 13.3621L14.9074 12.2749C15.2496 12.0736 15.8633 12.1138 16.2881 12.3554L17.8575 13.2816C18.2823 13.5232 18.3413 13.8856 17.9991 14.0869C17.9991 14.0869 16.4887 14.9728 16.1465 15.1742C15.8043 15.3755 15.1788 15.3352 14.7658 15.0936L13.1846 14.1675C12.7716 13.9259 12.7008 13.5635 13.043 13.3621Z" fill="white"/>
<defs>
<filter id="filter0_d" x="8.20001" y="3.66675" width="14.8" height="25.6667" filterUnits="userSpaceOnUse" color-interpolation-filters="sRGB">
<feFlood flood-opacity="0" result="BackgroundImageFix"/>
<feColorMatrix in="SourceAlpha" type="matrix" values="0 0 0 0 0 0 0 0 0 0 0 0 0 0 0 0 0 0 127 0"/>
<feOffset dy="1"/>
<feColorMatrix type="matrix" values="0 0 0 0 0 0 0 0 0 0 0 0 0 0 0 0 0 0 0.1 0"/>
<feBlend mode="normal" in2="BackgroundImageFix" result="effect1_dropShadow"/>
<feBlend mode="normal" in="SourceGraphic" in2="effect1_dropShadow" result="shape"/>
</filter>
</defs>
</svg>
