<svg width="32" height="32" viewBox="0 0 32 32" fill="none" xmlns="http://www.w3.org/2000/svg">
<path d="M28 32H4C1.8 32 0 30.2439 0 28.0976V3.90244C0 1.7561 1.8 0 4 0H28C30.2 0 32 1.7561 32 3.90244V28.0976C32 30.2439 30.2 32 28 32Z" fill="#2DB6D8"/>
<g filter="url(#filter0_d)">
<path fill-rule="evenodd" clip-rule="evenodd" d="M11.5459 10.3263C11.279 10.4808 10.9374 10.3896 10.783 10.1227C10.6285 9.85582 10.7197 9.51425 10.9866 9.35979C12.5178 8.47366 14.2567 8 16.0571 8C17.8675 8 19.5997 8.47889 21.1148 9.37617C21.3801 9.5333 21.4678 9.87578 21.3107 10.1411C21.1536 10.4064 20.8111 10.4941 20.5458 10.337C19.2022 9.54128 17.6663 9.11669 16.0571 9.11669C14.4545 9.11669 12.9083 9.53785 11.5459 10.3263ZM10.0305 14.3108C9.86578 14.5715 9.52094 14.6494 9.26023 14.4847C8.99952 14.32 8.92168 13.9752 9.08636 13.7145C10.6161 11.2928 13.1801 9.81814 16.0571 9.81814C18.9618 9.81814 21.5556 11.3014 23.0225 13.7232C23.1822 13.987 23.0979 14.3303 22.8341 14.4901C22.5704 14.6498 22.2271 14.5655 22.0673 14.3017C20.8015 12.2118 18.5685 10.9348 16.0571 10.9348C13.5711 10.9348 11.3595 12.2068 10.0305 14.3108ZM14.9586 23.6772C15.1798 23.4624 15.1851 23.1089 14.9703 22.8876C13.5476 21.4222 12.7279 19.5992 12.7279 18.1482C12.7279 16.1051 14.1292 14.5711 16.0565 14.5711C17.9281 14.5711 19.2849 15.9837 19.497 18.0703C19.5282 18.3771 19.8022 18.6005 20.109 18.5693C20.4158 18.5381 20.6392 18.2641 20.608 17.9573C20.341 15.3317 18.538 13.4544 16.0565 13.4544C13.4888 13.4544 11.6112 15.5098 11.6112 18.1482C11.6112 19.9058 12.5534 22.0013 14.1691 23.6655C14.3839 23.8867 14.7373 23.892 14.9586 23.6772ZM15.3954 17.8854C15.3459 17.5811 15.5525 17.2942 15.8568 17.2447C16.1612 17.1951 16.4481 17.4017 16.4976 17.706C16.6491 18.6368 16.8966 19.3086 17.2907 19.8498C17.6503 20.3425 18.1813 20.7593 18.7346 20.9801C19.0939 21.1236 19.4779 21.1981 19.8727 21.1981C20.1465 21.1981 20.4185 21.1612 20.6847 21.0888C20.9823 21.0078 21.2891 21.1834 21.37 21.481C21.451 21.7785 21.2754 22.0853 20.9779 22.1663C20.6168 22.2645 20.2463 22.3148 19.8727 22.3148C19.3355 22.3148 18.8109 22.2131 18.3205 22.0172C17.5703 21.7179 16.8709 21.1688 16.3884 20.5077C15.8798 19.8093 15.573 18.9764 15.3954 17.8854ZM11.2848 21.5709C11.557 21.426 11.6603 21.0879 11.5154 20.8157C11.1263 20.0845 10.9255 19.1542 10.9255 18.1483C10.9255 15.1055 13.1338 12.7477 16.0561 12.753C19.0716 12.7584 21.4213 15.3352 21.3188 18.1278C21.2903 18.9024 20.777 19.2593 19.9717 19.272C19.2997 19.2826 18.7235 18.796 18.6008 18.0535C18.302 16.2453 17.3267 15.2492 15.851 15.3496C14.3774 15.4498 13.5232 16.4667 13.501 18.0057C13.4755 19.7722 14.5744 21.7739 15.9549 22.8942C16.6689 23.4723 17.3498 23.7218 18.6398 23.9883C18.9418 24.0507 19.2372 23.8565 19.2996 23.5545C19.362 23.2526 19.1678 22.9572 18.8658 22.8948C17.7368 22.6614 17.1984 22.4642 16.6581 22.0267C15.5262 21.1082 14.5974 19.4164 14.6175 18.0219C14.6318 17.0369 15.064 16.5224 15.9268 16.4637C16.7591 16.4071 17.2858 16.945 17.4991 18.2356C17.7115 19.5212 18.7616 20.408 19.9893 20.3886C21.325 20.3675 22.3809 19.6332 22.4347 18.1688C22.5599 14.7578 19.7196 11.6428 16.0581 11.6363C12.5009 11.6299 9.80878 14.5042 9.80878 18.1483C9.80878 19.3267 10.0482 20.4356 10.5296 21.3403C10.6745 21.6125 11.0126 21.7158 11.2848 21.5709Z" fill="white"/>
</g>
<g filter="url(#filter1_d)">
<path fill-rule="evenodd" clip-rule="evenodd" d="M8.6 29.7H7.5C4.5 29.7 3 28.2 3 25.2V24.1C3 23.5 3 23.2 3.1 23.1C3.2 23 3.5 23 4.1 23C4.7 23 4.9 23 5.1 23.1C5.2 23.2 5.2 23.5 5.2 24.1V25.2C5.2 26.6 6 27.4 7.4 27.4H8.5C9.6 27.4 9.6 27.4 9.6 28.5C9.8 29.7 9.8 29.7 8.6 29.7Z" fill="white"/>
<path fill-rule="evenodd" clip-rule="evenodd" d="M25.3 29.7001H23.9C23.5 29.7001 23.3 29.7001 23.2 29.6001C23.1 29.5001 23.1 29.2001 23.1 28.6001C23.1 28.0001 23.1 27.8001 23.2 27.6001C23.3 27.5001 23.6 27.5001 24.2 27.5001H25.3C26.7 27.5001 27.5 26.7001 27.5 25.3001V24.2001C27.5 23.6001 27.5 23.3001 27.6 23.2001C27.7 23.1001 28 23.1001 28.6 23.1001C29.2 23.1001 29.4 23.1001 29.6 23.2001C29.7 23.3001 29.7 23.6001 29.7 24.2001V25.3001C29.8 28.2001 28.3 29.7001 25.3 29.7001Z" fill="white"/>
<path fill-rule="evenodd" clip-rule="evenodd" d="M5.20001 9.5C5.00001 9.7 4.70001 9.7 4.20001 9.7C3.60001 9.7 3.40001 9.7 3.20001 9.6C3.10001 9.5 3.10001 9.2 3.10001 8.6V7.5C3.10001 4.5 4.60001 3 7.60001 3H8.70001C9.80001 3 9.80001 3 9.80001 4.1C9.80001 5.2 9.80001 5.2 8.70001 5.2H7.60001C6.20001 5.2 5.40001 6 5.40001 7.4V8.5C5.30001 9.1 5.30001 9.4 5.20001 9.5Z" fill="white"/>
<path fill-rule="evenodd" clip-rule="evenodd" d="M29.7 9.5001C29.5 9.7001 29.2 9.7001 28.7 9.7001C28.1 9.7001 27.9 9.7001 27.7 9.6001C27.6 9.5001 27.6 9.2001 27.6 8.6001V7.5001C27.6 6.1001 26.8 5.3001 25.4 5.3001H24.3C23.7 5.3001 23.4 5.3001 23.3 5.2001C23.2 5.1001 23.2 4.8001 23.2 4.2001C23.2 3.6001 23.2 3.4001 23.3 3.2001C23.4 3.1001 23.7 3.1001 24.3 3.1001H25.4C28.4 3.1001 29.9 4.6001 29.9 7.6001V8.7001C29.8 9.1001 29.8 9.4001 29.7 9.5001Z" fill="white"/>
</g>
<defs>
<filter id="filter0_d" x="9" y="8" width="14.1033" height="17" filterUnits="userSpaceOnUse" color-interpolation-filters="sRGB">
<feFlood flood-opacity="0" result="BackgroundImageFix"/>
<feColorMatrix in="SourceAlpha" type="matrix" values="0 0 0 0 0 0 0 0 0 0 0 0 0 0 0 0 0 0 127 0"/>
<feOffset dy="1"/>
<feColorMatrix type="matrix" values="0 0 0 0 0 0 0 0 0 0 0 0 0 0 0 0 0 0 0.1 0"/>
<feBlend mode="normal" in2="BackgroundImageFix" result="effect1_dropShadow"/>
<feBlend mode="normal" in="SourceGraphic" in2="effect1_dropShadow" result="shape"/>
</filter>
<filter id="filter1_d" x="3" y="3" width="26.9" height="27.7001" filterUnits="userSpaceOnUse" color-interpolation-filters="sRGB">
<feFlood flood-opacity="0" result="BackgroundImageFix"/>
<feColorMatrix in="SourceAlpha" type="matrix" values="0 0 0 0 0 0 0 0 0 0 0 0 0 0 0 0 0 0 127 0"/>
<feOffset dy="1"/>
<feColorMatrix type="matrix" values="0 0 0 0 0 0 0 0 0 0 0 0 0 0 0 0 0 0 0.1 0"/>
<feBlend mode="normal" in2="BackgroundImageFix" result="effect1_dropShadow"/>
<feBlend mode="normal" in="SourceGraphic" in2="effect1_dropShadow" result="shape"/>
</filter>
</defs>
</svg>
