<svg width="32" height="32" viewBox="0 0 32 32" fill="none" xmlns="http://www.w3.org/2000/svg">
<path d="M27.9 32H4.2C1.9 32 0 30.1631 0 27.9396V4.06042C0 1.83686 1.9 0 4.2 0H27.8C30.1 0 32 1.83686 32 4.06042V27.9396C32 30.1631 30.2 32 27.9 32Z" fill="#2DB6D8"/>
<g filter="url(#filter0_d)">
<path fill-rule="evenodd" clip-rule="evenodd" d="M7.52778 6H25.4722C25.6122 6 25.7464 6.05561 25.8454 6.15458C25.9444 6.25356 26 6.3878 26 6.52778V24.4722C26 24.6122 25.9444 24.7464 25.8454 24.8454C25.7464 24.9444 25.6122 25 25.4722 25H7.52778C7.3878 25 7.25356 24.9444 7.15458 24.8454C7.05561 24.7464 7 24.6122 7 24.4722V6.52778C7 6.3878 7.05561 6.25356 7.15458 6.15458C7.25356 6.05561 7.3878 6 7.52778 6ZM14.2999 8.93211C14.3579 8.84531 14.3889 8.74327 14.3889 8.63889C14.3889 8.49891 14.3333 8.36467 14.2343 8.26569C14.1353 8.16672 14.0011 8.11111 13.8611 8.11111C13.7567 8.11111 13.6547 8.14206 13.5679 8.20006C13.4811 8.25805 13.4135 8.34048 13.3735 8.43692C13.3336 8.53336 13.3231 8.63947 13.3435 8.74185C13.3638 8.84423 13.4141 8.93827 13.4879 9.01208C13.5617 9.0859 13.6558 9.13616 13.7581 9.15653C13.8605 9.17689 13.9666 9.16644 14.0631 9.12649C14.1595 9.08655 14.242 9.0189 14.2999 8.93211ZM12.1888 8.93211C12.2468 8.84531 12.2778 8.74327 12.2778 8.63889C12.2778 8.49891 12.2222 8.36467 12.1232 8.26569C12.0242 8.16672 11.89 8.11111 11.75 8.11111C11.6456 8.11111 11.5436 8.14206 11.4568 8.20006C11.37 8.25805 11.3023 8.34048 11.2624 8.43692C11.2225 8.53336 11.212 8.63947 11.2324 8.74185C11.2527 8.84423 11.303 8.93827 11.3768 9.01208C11.4506 9.0859 11.5447 9.13616 11.647 9.15653C11.7494 9.17689 11.8555 9.16644 11.952 9.12649C12.0484 9.08655 12.1308 9.0189 12.1888 8.93211ZM9.93211 8.20006C9.84531 8.14206 9.74327 8.11111 9.63889 8.11111C9.49891 8.11111 9.36467 8.16672 9.26569 8.26569C9.16672 8.36467 9.11111 8.49891 9.11111 8.63889C9.11111 8.74327 9.14206 8.84531 9.20006 8.93211C9.25805 9.0189 9.34048 9.08655 9.43692 9.12649C9.53336 9.16644 9.63947 9.17689 9.74185 9.15653C9.84423 9.13616 9.93827 9.0859 10.0121 9.01208C10.0859 8.93827 10.1362 8.84423 10.1565 8.74185C10.1769 8.63947 10.1664 8.53336 10.1265 8.43692C10.0865 8.34048 10.0189 8.25805 9.93211 8.20006ZM8.05556 23.9444H24.9444V9.16667H17.2442L15.2914 11.1247C15.2421 11.1736 15.1836 11.2123 15.1193 11.2386C15.055 11.2649 14.9861 11.2782 14.9167 11.2778H8.05556V23.9444ZM19.7493 16.5669H20.1465C20.4414 16.5669 20.6796 16.8053 20.6797 17.0998V17.6996C20.6797 17.9941 20.4414 18.2326 20.1466 18.2326H19.7526C19.6782 18.5122 19.5677 18.7761 19.425 19.0197L19.7051 19.2998C19.9133 19.508 19.9133 19.8454 19.7051 20.0546L19.2809 20.4783C19.0727 20.6866 18.7353 20.6866 18.5272 20.4783L18.2413 20.1926C17.9988 20.331 17.7364 20.4372 17.4595 20.5091V20.9203C17.4595 21.2149 17.221 21.4534 16.9263 21.4534H16.3266C16.032 21.4534 15.7936 21.2149 15.7936 20.9203V20.4945C15.5239 20.4195 15.2691 20.3102 15.0331 20.1718L14.7268 20.4783C14.5179 20.6866 14.1812 20.6866 13.9724 20.4783L13.5486 20.0541C13.3402 19.8459 13.3402 19.5086 13.5486 19.3003L13.8631 18.986C13.7303 18.7517 13.6275 18.4988 13.5567 18.2327H13.1065C12.8117 18.2327 12.5733 17.9942 12.5733 17.6997V17.0999C12.5733 16.8053 12.8118 16.5669 13.1065 16.5669H13.5595C13.6312 16.3024 13.7343 16.0515 13.8672 15.8183L13.5484 15.4997C13.3402 15.291 13.3402 14.9541 13.5484 14.7454L13.9726 14.3217C14.1809 14.1135 14.5183 14.1135 14.7265 14.3217L15.0399 14.6351C15.274 14.4983 15.5265 14.3905 15.7936 14.3161V13.8798C15.7936 13.5852 16.0321 13.3467 16.3266 13.3467H16.9263C17.2211 13.3467 17.4595 13.5852 17.4595 13.8798V14.3019C17.7338 14.3727 17.994 14.4774 18.2344 14.6138L18.5266 14.3217C18.7347 14.1135 19.0721 14.113 19.2809 14.3217L19.7045 14.7461C19.9129 14.9542 19.9129 15.2916 19.7045 15.4998L19.4209 15.7835C19.5631 16.0266 19.6745 16.2889 19.7493 16.5669ZM15.0001 17.3998C15.0001 18.2982 15.7279 19.0265 16.6266 19.0265C17.5251 19.0265 18.2528 18.2982 18.2527 17.3998C18.2527 16.5019 17.525 15.7736 16.6266 15.7736C15.7279 15.7736 15.0001 16.5019 15.0001 17.3998Z" fill="white"/>
</g>
<defs>
<filter id="filter0_d" x="7" y="6" width="19" height="20" filterUnits="userSpaceOnUse" color-interpolation-filters="sRGB">
<feFlood flood-opacity="0" result="BackgroundImageFix"/>
<feColorMatrix in="SourceAlpha" type="matrix" values="0 0 0 0 0 0 0 0 0 0 0 0 0 0 0 0 0 0 127 0"/>
<feOffset dy="1"/>
<feColorMatrix type="matrix" values="0 0 0 0 0 0 0 0 0 0 0 0 0 0 0 0 0 0 0.1 0"/>
<feBlend mode="normal" in2="BackgroundImageFix" result="effect1_dropShadow"/>
<feBlend mode="normal" in="SourceGraphic" in2="effect1_dropShadow" result="shape"/>
</filter>
</defs>
</svg>
