<svg width="32" height="32" viewBox="0 0 32 32" fill="none" xmlns="http://www.w3.org/2000/svg">
<path d="M27.9 32H4.2C1.9 32 0 30.1631 0 27.9396V4.06042C0 1.83686 1.9 0 4.2 0H27.8C30.1 0 32 1.83686 32 4.06042V27.9396C32 30.1631 30.2 32 27.9 32Z" fill="#2DB6D8"/>
<g filter="url(#filter0_d)">
<path fill-rule="evenodd" clip-rule="evenodd" d="M15.9484 20.4C20.1484 20.4 23.6484 17 23.6484 12.7C23.6484 8.5 20.2484 5 15.9484 5C11.7484 5 8.24841 8.4 8.24841 12.7C8.24841 17 11.7484 20.4 15.9484 20.4ZM18.0484 10.3999H18.9484C19.3484 10.3999 19.5484 10.5999 19.5484 10.9999C19.5484 11.3999 19.2484 11.5999 18.9484 11.5999H18.0484C17.6484 11.5999 17.4484 11.2999 17.4484 10.9999C17.4484 10.5999 17.7484 10.3999 18.0484 10.3999ZM18.4484 14.7C17.8484 15.3 17.0484 15.6 16.1484 15.6C15.2484 15.6 14.4484 15.2 13.8484 14.7C13.6484 14.5 13.2484 14.5 13.0484 14.7C12.8484 14.9 12.8484 15.3 13.0484 15.5C13.8484 16.3 14.9484 16.8001 16.1484 16.8001C17.3484 16.8001 18.4484 16.4001 19.2484 15.5C19.4484 15.3 19.4484 14.9 19.2484 14.7C18.9484 14.5 18.6484 14.5 18.4484 14.7ZM13.0484 10.3999H13.9484C14.2484 10.3999 14.4484 10.5999 14.5484 10.9999C14.5484 11.3999 14.2484 11.5999 13.9484 11.5999H13.0484C12.6484 11.5999 12.4484 11.2999 12.4484 10.9999C12.4484 10.5999 12.7484 10.3999 13.0484 10.3999Z" fill="white"/>
<path fill-rule="evenodd" clip-rule="evenodd" d="M10.0484 24.3999L11.3484 24.4999C11.7484 24.4999 11.8484 24.9999 11.6484 25.1999L10.6484 25.9999C10.5484 26.0999 10.4484 26.2999 10.5484 26.3999L10.8484 27.6999C10.9484 28.0999 10.5484 28.2999 10.2484 28.0999L9.0484 27.4999C8.9484 27.3999 8.7484 27.3999 8.6484 27.4999L7.5484 28.1999C7.2484 28.3999 6.8484 28.0999 6.9484 27.7999L7.2484 26.4999C7.2484 26.3999 7.2484 26.1999 7.1484 26.0999L6.1484 25.2999C5.8484 25.0999 6.0484 24.5999 6.3484 24.5999L7.6484 24.4999C7.7484 24.4999 7.9484 24.3999 7.9484 24.1999L8.4484 22.9999C8.5484 22.6999 9.0484 22.6999 9.2484 22.9999L9.7484 24.1999C9.7484 24.2999 9.9484 24.3999 10.0484 24.3999Z" fill="white"/>
<path fill-rule="evenodd" clip-rule="evenodd" d="M18.9484 24.5L17.6484 24.4C17.5484 24.4 17.3484 24.3 17.3484 24.1L16.8484 22.9C16.7484 22.6 16.2484 22.6 16.0484 22.9L15.5484 24.1C15.4484 24.2 15.3484 24.3 15.2484 24.4L13.9484 24.5C13.5484 24.5 13.4484 25 13.7484 25.2L14.7484 26C14.8484 26.1 14.9484 26.3 14.8484 26.4L14.5484 27.7C14.4484 28.1 14.8484 28.3 15.1484 28.1L16.2484 27.4C16.3484 27.3 16.5484 27.3 16.6484 27.4L17.7484 28.1C18.0484 28.3 18.4484 28 18.3484 27.7L18.0484 26.5C18.0484 26.4 18.0484 26.2 18.1484 26.1L19.1484 25.3001C19.4484 25.0001 19.2484 24.6 18.9484 24.5Z" fill="white"/>
<path fill-rule="evenodd" clip-rule="evenodd" d="M26.4484 24.5C26.8484 24.5 26.9484 25 26.6484 25.2L25.6484 26C25.5484 26.1 25.4484 26.3 25.5484 26.4L25.8484 27.7C25.9484 28.1 25.5484 28.3 25.2484 28.1L24.1484 27.4C24.0484 27.3 23.8484 27.3 23.7484 27.4L22.6484 28.1C22.3484 28.3 21.9484 28 22.0484 27.7L22.3484 26.4C22.3484 26.3 22.3484 26.1 22.2484 26L21.2484 25.2C20.9484 25 21.1484 24.5 21.4484 24.5L22.7484 24.4C22.8484 24.4 23.0484 24.3 23.0484 24.1L23.5484 22.9C23.6484 22.6 24.1484 22.6 24.3484 22.9L24.8484 24.1C24.9484 24.2 25.0484 24.3 25.1484 24.4L26.4484 24.5Z" fill="white"/>
</g>
<defs>
<filter id="filter0_d" x="6" y="5" width="20.8228" height="24.2647" filterUnits="userSpaceOnUse" color-interpolation-filters="sRGB">
<feFlood flood-opacity="0" result="BackgroundImageFix"/>
<feColorMatrix in="SourceAlpha" type="matrix" values="0 0 0 0 0 0 0 0 0 0 0 0 0 0 0 0 0 0 127 0"/>
<feOffset dy="1"/>
<feColorMatrix type="matrix" values="0 0 0 0 0 0 0 0 0 0 0 0 0 0 0 0 0 0 0.1 0"/>
<feBlend mode="normal" in2="BackgroundImageFix" result="effect1_dropShadow"/>
<feBlend mode="normal" in="SourceGraphic" in2="effect1_dropShadow" result="shape"/>
</filter>
</defs>
</svg>
