<svg width="32" height="32" viewBox="0 0 32 32" fill="none" xmlns="http://www.w3.org/2000/svg">
<path d="M27.8 32H4.2C1.9 32 0 30.1576 0 27.9273V4.07273C0 1.84243 1.9 0 4.2 0H27.8C30.1 0 32 1.84243 32 4.07273V28.0242C32 30.2545 30.1 32 27.8 32Z" fill="#2DB6D8"/>
<g filter="url(#filter0_d)">
<path d="M16.7 8.575L13.3 11.975C14.3 11.675 15.4 11.675 16.5 11.975C16.6 11.975 16.8 12.075 16.9 12.075L18.6 10.375C19.6 9.375 21.3 9.375 22.3 10.375C23.3 11.375 23.3 13.075 22.3 14.075L20 16.375L18.6 17.775C18.3 18.075 17.9 18.275 17.4 18.475C16.5 18.675 15.6 18.475 14.9 17.775C14.4 17.275 14.2 16.775 14.2 16.175C14 16.275 13.8 16.375 13.7 16.475L12.1 18.075C12.4 18.675 12.7 19.175 13.1 19.575C13.8 20.275 14.6 20.675 15.4 20.875C16.7 21.275 18.2 21.075 19.4 20.375C19.8 20.175 20.1 19.875 20.4 19.575L24.1 15.875C26.1 13.875 26.1 10.575 24.1 8.575C22 6.475 18.7 6.475 16.7 8.575Z" fill="white"/>
<path d="M18.3 21.6752C17.1 21.9752 15.9 21.9752 14.7 21.5752L13 23.2752C12 24.2752 10.3 24.2752 9.3 23.2752C8.3 22.2752 8.3 20.5752 9.3 19.5752L13 15.8752C13.3 15.5752 13.7 15.3752 14.2 15.1752C15.1 14.9752 16 15.1752 16.7 15.8752C17.2 16.3752 17.4 16.9752 17.4 17.5752C17.6 17.4752 17.8 17.3752 17.9 17.1752L19.5 15.5752C19.3 14.9752 18.9 14.4752 18.5 14.0752C17.8 13.3752 17 12.9752 16.2 12.7752C14.9 12.3752 13.4 12.5752 12.2 13.2752C11.8 13.4752 11.5 13.7752 11.2 14.0752L7.5 17.7752C5.5 19.7752 5.5 23.0752 7.5 25.0752C9.5 27.0752 12.8 27.0752 14.8 25.0752L18.3 21.6752Z" fill="white"/>
</g>
<defs>
<filter id="filter0_d" x="6" y="7" width="19.6" height="20.5752" filterUnits="userSpaceOnUse" color-interpolation-filters="sRGB">
<feFlood flood-opacity="0" result="BackgroundImageFix"/>
<feColorMatrix in="SourceAlpha" type="matrix" values="0 0 0 0 0 0 0 0 0 0 0 0 0 0 0 0 0 0 127 0"/>
<feOffset dy="1"/>
<feColorMatrix type="matrix" values="0 0 0 0 0 0 0 0 0 0 0 0 0 0 0 0 0 0 0.1 0"/>
<feBlend mode="normal" in2="BackgroundImageFix" result="effect1_dropShadow"/>
<feBlend mode="normal" in="SourceGraphic" in2="effect1_dropShadow" result="shape"/>
</filter>
</defs>
</svg>
