<svg width="32" height="32" viewBox="0 0 32 32" fill="none" xmlns="http://www.w3.org/2000/svg">
<path d="M27.9 32H4.2C1.9 32 0 30.1631 0 27.9396V4.06042C0 1.83686 1.9 0 4.2 0H27.8C30.1 0 32 1.83686 32 4.06042V27.9396C32 30.1631 30.2 32 27.9 32Z" fill="url(#paint0_linear)"/>
<g filter="url(#filter0_d)">
<path fill-rule="evenodd" clip-rule="evenodd" d="M24.1 10.2C24.1 10.2 24.1 10.1 24.1 10.2C24.1 8.79995 20.5 7.69995 16.1 7.69995C11.7 7.69995 8.10004 8.79995 8.10004 10.2C8.10004 11.6 11.7 12.7 16.1 12.7C20.5 12.7 24 11.5 24.1 10.2ZM24.1 23.8V20.1999C24.1 21.5999 20.5 22.6999 16.1 22.6999C11.7 22.6999 8.10004 21.5999 8.10004 20.1999V23.8C8.10004 25.2 11.7 26.3 16.1 26.3C20.5 26.3 24.1 25.1 24.1 23.8ZM24.1 19.1999C24.1 20.5999 20.5 21.6999 16.1 21.6999C11.7 21.6999 8.10004 20.5999 8.10004 19.1999V15.6C8.10004 17 11.7 18.1 16.1 18.1C20.5 18.1 24.1 17 24.1 15.6V19.1999ZM24.1 14.7V11.1C24.1 12.5 20.5 13.6 16.1 13.6C11.7 13.6 8.10004 12.5 8.10004 11.1V14.7C8.10004 16.1 11.7 17.1999 16.1 17.1999C20.5 17.1999 24.1 16.1 24.1 14.7Z" fill="white"/>
</g>
<defs>
<filter id="filter0_d" x="8.10004" y="7.69995" width="16" height="19.6" filterUnits="userSpaceOnUse" color-interpolation-filters="sRGB">
<feFlood flood-opacity="0" result="BackgroundImageFix"/>
<feColorMatrix in="SourceAlpha" type="matrix" values="0 0 0 0 0 0 0 0 0 0 0 0 0 0 0 0 0 0 127 0"/>
<feOffset dy="1"/>
<feColorMatrix type="matrix" values="0 0 0 0 0 0 0 0 0 0 0 0 0 0 0 0 0 0 0.1 0"/>
<feBlend mode="normal" in2="BackgroundImageFix" result="effect1_dropShadow"/>
<feBlend mode="normal" in="SourceGraphic" in2="effect1_dropShadow" result="shape"/>
</filter>
<linearGradient id="paint0_linear" x1="16" y1="0" x2="16" y2="32" gradientUnits="userSpaceOnUse">
<stop stop-color="#2DB6D8"/>
<stop offset="1" stop-color="#2BAACA"/>
</linearGradient>
</defs>
</svg>
