<svg width="32" height="32" viewBox="0 0 32 32" fill="none" xmlns="http://www.w3.org/2000/svg">
<path d="M27.9 32H4.2C1.9 32 0 30.1631 0 27.9396V4.06042C0 1.83686 1.9 0 4.2 0H27.8C30.1 0 32 1.83686 32 4.06042V27.9396C32 30.1631 30.2 32 27.9 32Z" fill="#2DB6D8"/>
<g filter="url(#filter0_d)">
<path fill-rule="evenodd" clip-rule="evenodd" d="M21 21C24.8 21 28 17.9 28 14C28 10.1 24.9 7 21 7C17.2 7 14 10.1 14 14C14.1 17.9 17.2 21 21 21ZM22.7 12H23.5C23.8 12 24 12.2 24 12.5C24 12.8 23.8 13 23.5 13H22.7C22.4 13 22.2 12.8 22.2 12.5C22.2 12.2 22.4 12 22.7 12ZM23 15.9C22.4 16.5 21.7 16.8 20.9 16.8C20.1 16.8 19.3 16.4 18.8 15.9C18.6 15.7 18.3 15.7 18.1 15.9C17.9 16.1 17.9 16.4 18.1 16.6C18.9 17.4 19.9 17.8 20.9 17.8C22 17.8 23 17.4 23.7 16.6C23.9 16.4 23.9 16.1 23.7 15.9C23.5 15.7 23.2 15.7 23 15.9ZM18.1 12H18.9C19.2 12 19.4 12.2 19.4 12.5C19.4 12.8 19.2 13 18.9 13H18.1C17.8 13 17.6 12.8 17.6 12.5C17.6 12.2 17.8 12 18.1 12Z" fill="white"/>
<path fill-rule="evenodd" clip-rule="evenodd" d="M11.5 10C12.6063 10 13.6567 10.2395 14.6021 10.6696C14.0293 11.6801 13.7 12.8489 13.7 14.1C13.7142 14.6528 13.7887 15.1896 13.9168 15.7038C13.8313 15.5757 13.6846 15.5 13.5 15.5H12.7C12.4 15.5 12.2 15.7 12.2 16C12.2 16.3 12.4 16.5 12.7 16.5H13.5C13.7971 16.5 13.9961 16.3039 14 16.0088C14.6408 18.1748 16.2467 19.9002 18.3002 20.6677C17.1061 23.2266 14.5102 25 11.5 25C7.35786 25 4 21.6421 4 17.5C4 13.3579 7.35786 10 11.5 10ZM14.2 20C14.4 20.2 14.4 20.5001 14.2 20.7001C14 20.9001 13.7 20.9001 13.5 20.7001C13 20.1 12.2 19.8 11.4 19.8C10.6 19.8 9.90001 20.1 9.30001 20.7001C9.10001 20.9001 8.80001 20.9001 8.60001 20.7001C8.40001 20.5001 8.40001 20.2 8.60001 20C9.30001 19.2 10.4 18.8 11.4 18.8C12.4 18.8 13.4 19.2 14.2 20ZM9.59999 15.5H8.79999C8.49999 15.5 8.29999 15.7 8.29999 16C8.29999 16.3 8.49999 16.5 8.79999 16.5H9.59999C9.89999 16.5 10.1 16.3 10.1 16C10.1 15.7 9.89999 15.5 9.59999 15.5Z" fill="white"/>
</g>
<defs>
<filter id="filter0_d" x="4" y="7" width="24" height="19" filterUnits="userSpaceOnUse" color-interpolation-filters="sRGB">
<feFlood flood-opacity="0" result="BackgroundImageFix"/>
<feColorMatrix in="SourceAlpha" type="matrix" values="0 0 0 0 0 0 0 0 0 0 0 0 0 0 0 0 0 0 127 0"/>
<feOffset dy="1"/>
<feColorMatrix type="matrix" values="0 0 0 0 0 0 0 0 0 0 0 0 0 0 0 0 0 0 0.1 0"/>
<feBlend mode="normal" in2="BackgroundImageFix" result="effect1_dropShadow"/>
<feBlend mode="normal" in="SourceGraphic" in2="effect1_dropShadow" result="shape"/>
</filter>
</defs>
</svg>
