<svg width="32" height="32" viewBox="0 0 32 32" fill="none" xmlns="http://www.w3.org/2000/svg">
<path d="M27.8 32H4.2C1.9 32 0 30.1576 0 27.9273V4.07273C0 1.84242 1.9 0 4.2 0H27.8C30.1 0 32 1.84242 32 4.07273V27.9273C32 30.1576 30.1 32 27.8 32Z" fill="#2DB6D8"/>
<g filter="url(#filter0_d)">
<path fill-rule="evenodd" clip-rule="evenodd" d="M24.6 15.4C24.6 15.4 25 15.6 25.3 15.7C26.6 16.5 27.5 18 27.5 19.7C27.5 22.3 25.4 24.4 22.9 24.4H9.6C7 24.4 5 22.3 5 19.7C5 18.2 5.7 16.8 6.9 15.9C7.2 15.7 7.5 15.5 7.5 15.5C7.6 15.4 7.7 15.3 7.7 15.1C7.7 15.1 7.6 14.7 7.6 14.4C7.6 12.4 9.2 10.7 11.2 10.7C11.6 10.7 12.1 10.8 12.5 10.9C12.8 11 13.2 11.3 13.2 11.3C13.3 11.4 13.5 11.3 13.5 11.2C13.5 11.2 13.7 10.8 13.9 10.5C15 9 16.7 8 18.7 8C22 8 24.6 10.7 24.6 14C24.6 14.3 24.5 14.8 24.5 14.8C24.4 15.2 24.5 15.3 24.6 15.4ZM19.9 16.4H20.4C20.8 16.4 21 16.7 21 17V17.7C21 18.1 20.7 18.3 20.4 18.3H19.9C19.8 18.6 19.7 18.9 19.5 19.2L19.8 19.5C20 19.7 20 20.2 19.8 20.4L19.3 20.9C19.1 21.1 18.6 21.1 18.4 20.9L18.1 20.7C17.8 20.9 17.5 21 17.2 21.1V21.6C17.2 22 16.9 22.2 16.6 22.2H15.9C15.5 22.2 15.3 21.9 15.3 21.6V21.1C15 21 14.7 20.9 14.4 20.7L14 21.1C13.8 21.3 13.3 21.3 13.1 21.1L12.6 20.6C12.4 20.4 12.4 19.9 12.6 19.7L13 19.3C12.8 19 12.7 18.7 12.6 18.4H12.1C11.7 18.4 11.5 18.1 11.5 17.8V17.1C11.5 16.7 11.8 16.5 12.1 16.5H12.6C12.7 16.2 12.8 15.9 13 15.6L12.6 15.2C12.4 15 12.4 14.5 12.6 14.3L13.1 13.8C13.3 13.6 13.8 13.6 14 13.8L14.4 14.2C14.7 14 15 13.9 15.3 13.8V13.3C15.3 12.9 15.6 12.7 15.9 12.7H16.6C17 12.7 17.2 13 17.2 13.3V13.7C17.5 13.8 17.8 13.9 18.1 14.1L18.4 13.8C18.6 13.6 19.1 13.6 19.3 13.8L19.8 14.3C20 14.5 20 15 19.8 15.2L19.5 15.5C19.6 15.7 19.8 16 19.9 16.4ZM14.2 17.4C14.2 18.5 15.1 19.3 16.1 19.3C17.2 19.3 18 18.4 18 17.4C18 16.3 17.1 15.5 16.1 15.5C15.1 15.4 14.2 16.3 14.2 17.4Z" fill="white"/>
</g>
<defs>
<filter id="filter0_d" x="5" y="8" width="22.5" height="17.4" filterUnits="userSpaceOnUse" color-interpolation-filters="sRGB">
<feFlood flood-opacity="0" result="BackgroundImageFix"/>
<feColorMatrix in="SourceAlpha" type="matrix" values="0 0 0 0 0 0 0 0 0 0 0 0 0 0 0 0 0 0 127 0"/>
<feOffset dy="1"/>
<feColorMatrix type="matrix" values="0 0 0 0 0 0 0 0 0 0 0 0 0 0 0 0 0 0 0.1 0"/>
<feBlend mode="normal" in2="BackgroundImageFix" result="effect1_dropShadow"/>
<feBlend mode="normal" in="SourceGraphic" in2="effect1_dropShadow" result="shape"/>
</filter>
</defs>
</svg>
