<svg width="32" height="32" viewBox="0 0 32 32" fill="none" xmlns="http://www.w3.org/2000/svg">
<path d="M27.8 32H4.2C1.9 32 0 30.1576 0 27.9273V4.07273C0 1.84242 1.9 0 4.2 0H27.8C30.1 0 32 1.84242 32 4.07273V27.9273C32 30.1576 30.1 32 27.8 32Z" fill="#2DB6D8"/>
<g filter="url(#filter0_d)">
<path fill-rule="evenodd" clip-rule="evenodd" d="M16.9 9.3001C18.9 9.3001 19.2 8.1001 20.4 8.1001C24.9 8.1001 28.5 16.7001 28.5 22.0001C28.5 24.3001 26.2 25.5001 25 25.5001C23.8 25.5001 21.5 20.9001 19.2 20.9001C18 20.9001 13.5 20.9001 12.3 20.9001C10 20.9001 7.7 25.5001 6.5 25.5001C5.3 25.5001 3 24.3001 3 22.0001C3 16.7001 6.5 8.1001 11.1 8.1001C12.3 8.1001 13.4 9.3001 14.6 9.3001H16.9V9.3001Z" fill="white"/>
<path fill-rule="evenodd" clip-rule="evenodd" d="M18.3 13.8999C17.7 13.8999 17.1 14.3999 17.1 15.0999C17.1 15.6999 17.6 16.2999 18.3 16.2999C18.9 16.2999 19.5 15.7999 19.5 15.0999C19.5 14.3999 18.9 13.8999 18.3 13.8999Z" fill="#2DB6D8"/>
<path fill-rule="evenodd" clip-rule="evenodd" d="M22.9 13.8999C22.3 13.8999 21.7 14.3999 21.7 15.0999C21.7 15.6999 22.2 16.2999 22.9 16.2999C23.5 16.2999 24.1 15.7999 24.1 15.0999C24.1 14.3999 23.6 13.8999 22.9 13.8999Z" fill="#2DB6D8"/>
<path d="M20.6 14.0001C21.2627 14.0001 21.8 13.4628 21.8 12.8001C21.8 12.1374 21.2627 11.6001 20.6 11.6001C19.9372 11.6001 19.4 12.1374 19.4 12.8001C19.4 13.4628 19.9372 14.0001 20.6 14.0001Z" fill="#2DB6D8"/>
<path fill-rule="evenodd" clip-rule="evenodd" d="M20.6 16.2002C20 16.2002 19.4 16.7002 19.4 17.4002C19.4 18.0002 19.9 18.6002 20.6 18.6002C21.2 18.6002 21.8 18.1002 21.8 17.4002C21.8 16.7002 21.3 16.2002 20.6 16.2002Z" fill="#2DB6D8"/>
<path d="M11.4 18.0002C13.0016 18.0002 14.3 16.7018 14.3 15.1002C14.3 13.4986 13.0016 12.2002 11.4 12.2002C9.79837 12.2002 8.5 13.4986 8.5 15.1002C8.5 16.7018 9.79837 18.0002 11.4 18.0002Z" fill="#2DB6D8"/>
<path fill-rule="evenodd" clip-rule="evenodd" d="M11.4 13.8999C10.8 13.8999 10.2 14.3999 10.2 15.0999C10.2 15.6999 10.7 16.2999 11.4 16.2999C12 16.2999 12.6 15.7999 12.6 15.0999C12.5 14.3999 12 13.8999 11.4 13.8999Z" fill="white"/>
</g>
<defs>
<filter id="filter0_d" x="3" y="8.1001" width="25.5" height="18.4" filterUnits="userSpaceOnUse" color-interpolation-filters="sRGB">
<feFlood flood-opacity="0" result="BackgroundImageFix"/>
<feColorMatrix in="SourceAlpha" type="matrix" values="0 0 0 0 0 0 0 0 0 0 0 0 0 0 0 0 0 0 127 0"/>
<feOffset dy="1"/>
<feColorMatrix type="matrix" values="0 0 0 0 0 0 0 0 0 0 0 0 0 0 0 0 0 0 0.1 0"/>
<feBlend mode="normal" in2="BackgroundImageFix" result="effect1_dropShadow"/>
<feBlend mode="normal" in="SourceGraphic" in2="effect1_dropShadow" result="shape"/>
</filter>
</defs>
</svg>
