<svg width="32" height="32" viewBox="0 0 32 32" fill="none" xmlns="http://www.w3.org/2000/svg">
<path d="M27.8 32H4.2C1.9 32 0 30.1576 0 27.9273V4.07273C0 1.84242 1.9 0 4.2 0H27.8C30.1 0 32 1.84242 32 4.07273V27.9273C32 30.1576 30.1 32 27.8 32Z" fill="#2DB6D8"/>
<g filter="url(#filter0_d)">
<path fill-rule="evenodd" clip-rule="evenodd" d="M15 10.7C14.9 10.6 14.7 10.5 14.7 10.5C14.6 10.5 14.6 10.4 14.6 10.3C14.6 10.3 14.6 10.1 14.6 9.9C14.6 8.3 13.3 7 11.7 7C10.7 7 9.9 7.5 9.4 8.2C9.3 8.3 9.2 8.5 9.2 8.5C9.2 8.6 9.1 8.6 9 8.5C9 8.5 8.8 8.4 8.7 8.3C8.5 8.2 8.3 8.2 8.1 8.2C7.1 8.2 6.3 9 6.3 10C6.3 10.2 6.3 10.3 6.3 10.3C6.3 10.4 6.3 10.4 6.2 10.5C6.2 10.5 6 10.6 5.9 10.7C5.3 11.1 5 11.8 5 12.6C5 13.9 6 14.9 7.3 14.9H13.9C15.2 14.9 16.2 13.9 16.2 12.6C16.1 11.8 15.6 11.1 15 10.7Z" fill="white"/>
<path fill-rule="evenodd" clip-rule="evenodd" d="M10.8 16.2C10.4 16.2 10.1 16.5 10.1 16.9C10.1 17.3 10.4 17.6 10.8 17.6C11.2 17.6 11.5 17.3 11.5 16.9C11.5 16.6 11.2 16.2 10.8 16.2Z" fill="white"/>
<path d="M10.8 19.7999C11.1866 19.7999 11.5 19.4865 11.5 19.0999C11.5 18.7133 11.1866 18.3999 10.8 18.3999C10.4134 18.3999 10.1 18.7133 10.1 19.0999C10.1 19.4865 10.4134 19.7999 10.8 19.7999Z" fill="white"/>
<path d="M10.8 21.9C11.1866 21.9 11.5 21.5866 11.5 21.2C11.5 20.8134 11.1866 20.5 10.8 20.5C10.4134 20.5 10.1 20.8134 10.1 21.2C10.1 21.5866 10.4134 21.9 10.8 21.9Z" fill="white"/>
<path fill-rule="evenodd" clip-rule="evenodd" d="M12.9 20.5C12.5 20.5 12.2 20.8 12.2 21.2C12.2 21.6 12.5 21.9 12.9 21.9C13.3 21.9 13.6 21.6 13.6 21.2C13.6 20.8 13.3 20.5 12.9 20.5Z" fill="white"/>
<path d="M15 21.9C15.3866 21.9 15.7 21.5866 15.7 21.2C15.7 20.8134 15.3866 20.5 15 20.5C14.6134 20.5 14.3 20.8134 14.3 21.2C14.3 21.5866 14.6134 21.9 15 21.9Z" fill="white"/>
<path fill-rule="evenodd" clip-rule="evenodd" d="M27.1 20.0001C27.1 20.0001 27.3 20.1001 27.4 20.2001C28.1 20.6001 28.5 21.3001 28.5 22.2001C28.5 23.5001 27.5 24.5001 26.2 24.5001H19.6C18.3 24.5001 17.3 23.5001 17.3 22.2001C17.3 21.4001 17.7 20.8001 18.2 20.3001C18.4 20.2001 18.6 20.1001 18.6 20.1001C18.7 20.1001 18.7 20.0001 18.7 19.9001C18.7 19.9001 18.7 19.7001 18.7 19.6001C18.7 18.6001 19.5 17.8001 20.5 17.8001C20.7 17.8001 20.9 17.8001 21.1 17.9001C21.3 18.0001 21.4 18.1001 21.4 18.1001C21.5 18.1001 21.5 18.1001 21.6 18.1001C21.6 18.1001 21.7 17.9001 21.8 17.8001C22.3 17.1001 23.2 16.6001 24.1 16.6001C25.7 16.6001 27 17.9001 27 19.5001C27 19.7001 27 19.9001 27 19.9001C26.9 19.9001 27 20.0001 27.1 20.0001Z" fill="white"/>
</g>
<defs>
<filter id="filter0_d" x="5" y="7" width="23.5" height="18.5001" filterUnits="userSpaceOnUse" color-interpolation-filters="sRGB">
<feFlood flood-opacity="0" result="BackgroundImageFix"/>
<feColorMatrix in="SourceAlpha" type="matrix" values="0 0 0 0 0 0 0 0 0 0 0 0 0 0 0 0 0 0 127 0"/>
<feOffset dy="1"/>
<feColorMatrix type="matrix" values="0 0 0 0 0 0 0 0 0 0 0 0 0 0 0 0 0 0 0.1 0"/>
<feBlend mode="normal" in2="BackgroundImageFix" result="effect1_dropShadow"/>
<feBlend mode="normal" in="SourceGraphic" in2="effect1_dropShadow" result="shape"/>
</filter>
</defs>
</svg>
