<svg width="32" height="32" viewBox="0 0 32 32" fill="none" xmlns="http://www.w3.org/2000/svg">
<path d="M27.8 32H4.2C1.9 32 0 30.1576 0 27.9273V4.07273C0 1.84243 1.9 0 4.2 0H27.8C30.1 0 32 1.84243 32 4.07273V28.0242C32 30.2545 30.1 32 27.8 32Z" fill="#2DB6D8"/>
<g filter="url(#filter0_d)">
<path d="M17.4 7.075C16.7 6.975 15.9 6.975 15.2 7.075C13.8 7.275 12.5 8.075 11.5 9.175C10.6 10.275 10 11.675 10 13.175C10 13.975 10.2 14.775 10.5 15.575C11 16.775 11.7 17.775 12.3 18.775C13 19.775 13.6 20.875 14.2 21.875C14.8 22.975 15.2 24.275 15.2 25.475C15.2 25.575 15.2 25.775 15.3 25.875C15.4 25.975 15.4 26.075 15.5 26.175C15.6 26.275 15.7 26.375 15.8 26.375C15.9 26.375 16.1 26.475 16.2 26.475C16.5 26.475 16.7 26.375 16.9 26.175C17.1 25.975 17.2 25.775 17.2 25.475C17.3 24.175 17.6 22.975 18.2 21.875C18.8 20.775 19.5 19.775 20.1 18.775C20.7 17.775 21.5 16.675 21.9 15.575C22.2 14.875 22.4 14.075 22.4 13.175C22.4 11.675 21.8 10.275 20.9 9.175C20.2 8.075 18.9 7.375 17.4 7.075ZM19.1 13.675C19 14.175 18.7 14.775 18.3 15.175C17.9 15.575 17.4 15.875 16.9 15.975C16.4 16.075 15.8 16.075 15.3 15.775C14.8 15.575 14.3 15.175 14 14.775C13.7 14.275 13.5 13.775 13.5 13.175C13.5 12.575 13.7 12.075 14 11.575C14.3 11.075 14.7 10.775 15.3 10.575C15.8 10.375 16.4 10.275 16.9 10.375C17.6 10.475 18.3 10.975 18.7 11.575C19.1 12.175 19.2 12.975 19.1 13.675Z" fill="white"/>
</g>
<defs>
<filter id="filter0_d" x="10" y="7" width="12.4" height="20.475" filterUnits="userSpaceOnUse" color-interpolation-filters="sRGB">
<feFlood flood-opacity="0" result="BackgroundImageFix"/>
<feColorMatrix in="SourceAlpha" type="matrix" values="0 0 0 0 0 0 0 0 0 0 0 0 0 0 0 0 0 0 127 0"/>
<feOffset dy="1"/>
<feColorMatrix type="matrix" values="0 0 0 0 0 0 0 0 0 0 0 0 0 0 0 0 0 0 0.1 0"/>
<feBlend mode="normal" in2="BackgroundImageFix" result="effect1_dropShadow"/>
<feBlend mode="normal" in="SourceGraphic" in2="effect1_dropShadow" result="shape"/>
</filter>
</defs>
</svg>
