<svg width="32" height="32" viewBox="0 0 32 32" fill="none" xmlns="http://www.w3.org/2000/svg">
<path d="M27.8 32H4.2C1.9 32 0 30.1576 0 27.9273V4.07273C0 1.84243 1.9 0 4.2 0H27.8C30.1 0 32 1.84243 32 4.07273V28.0242C32 30.2545 30.1 32 27.8 32Z" fill="#2DB6D8"/>
<g filter="url(#filter0_d)">
<path d="M17.3 24.7V26.1C17.3 26.9 16.7 27.5 15.9 27.5C15.1 27.5 14.5 26.9 14.5 26.1V24.7C12 24.3 10.1 23 9.2 21.6C9.1 21.4 9 21.1 9 20.9C9 20.1 9.6 19.5 10.4 19.5C11 19.5 11.3 19.8 11.5 20.1C12.6 21.2 14 22.1 15.8 22.1C18.2 22.1 19.3 21.3 19.3 19.7C19.3 15.9 9.8 17.6 9.8 11.4C9.8 9.1 11.3 7.1 14.5 6.7V5.4C14.5 4.6 15.1 4 15.9 4C16.7 4 17.3 4.6 17.3 5.4V6.6C19.2 6.9 20.9 7.7 21.7 8.9C21.9 9.1 22 9.4 22 9.7C22 10.5 21.4 11.1 20.6 11.1C20.2 11.1 19.9 10.9 19.5 10.5C18.7 9.7 17.3 9.1 15.8 9.1C13.6 9.1 12.8 10.1 12.8 11.2C12.8 14.6 22.3 13 22.3 19.5C22.3 22.4 20.6 24.2 17.3 24.7Z" fill="white"/>
</g>
<defs>
<filter id="filter0_d" x="9" y="4" width="13.3" height="24.5" filterUnits="userSpaceOnUse" color-interpolation-filters="sRGB">
<feFlood flood-opacity="0" result="BackgroundImageFix"/>
<feColorMatrix in="SourceAlpha" type="matrix" values="0 0 0 0 0 0 0 0 0 0 0 0 0 0 0 0 0 0 127 0"/>
<feOffset dy="1"/>
<feColorMatrix type="matrix" values="0 0 0 0 0 0 0 0 0 0 0 0 0 0 0 0 0 0 0.1 0"/>
<feBlend mode="normal" in2="BackgroundImageFix" result="effect1_dropShadow"/>
<feBlend mode="normal" in="SourceGraphic" in2="effect1_dropShadow" result="shape"/>
</filter>
</defs>
</svg>
