<svg width="32" height="32" viewBox="0 0 32 32" fill="none" xmlns="http://www.w3.org/2000/svg">
<path d="M27.8 32H4.2C1.9 32 0 30.1576 0 27.9273V4.07273C0 1.84243 1.9 0 4.2 0H27.8C30.1 0 32 1.84243 32 4.07273V28.0242C32 30.1576 30.1 32 27.8 32Z" fill="#2DB6D8"/>
<g filter="url(#filter0_d)">
<path fill-rule="evenodd" clip-rule="evenodd" d="M8.4 29.1H7.3C4.4 29.1 3 27.7 3 24.8V23.7C3 23.1 3 22.9 3.1 22.7C3.2 22.6 3.5 22.6 4 22.6C4.5 22.6 4.8 22.6 4.9 22.7C5 22.8 5 23.1 5 23.7V24.8C5 26.2 5.8 27 7.2 27H8.3C9.4 27 9.4 27 9.4 28.1C9.5 29.1 9.5 29.1 8.4 29.1ZM24.6 29.1H23.3C22.9 29.1 22.7 29.1 22.6 29C22.5 28.9 22.5 28.6 22.5 28C22.5 27.5 22.5 27.2 22.6 27.1C22.7 27 23 27 23.6 27H24.6C26 27 26.8 26.2 26.8 24.8V23.7C26.8 22.6 26.8 22.6 27.9 22.6C28.4 22.6 28.7 22.6 28.8 22.7C28.9 22.8 28.9 23.1 28.9 23.7V24.8C29 27.7 27.5 29.1 24.6 29.1ZM5 9.5C4.9 9.6 4.6 9.6 4.1 9.6C3.6 9.6 3.3 9.6 3.2 9.5C3.1 9.4 3.1 9.1 3.1 8.5V7.4C3.1 4.5 4.5 3.1 7.4 3.1H8.5C9.6 3.1 9.6 3.1 9.6 4.2C9.6 5.3 9.6 5.3 8.5 5.3H7.4C6 5.3 5.2 6.1 5.2 7.5V8.6C5.2 9.1 5.2 9.4 5 9.5ZM28.8 9.5C28.7 9.6 28.4 9.6 27.9 9.6C26.8 9.6 26.8 9.6 26.8 8.5V7.4C26.8 6 26 5.2 24.6 5.2H23.6C22.5 5.2 22.5 5.2 22.5 4.1C22.5 3 22.5 3 23.6 3H24.6C27.5 3 28.9 4.4 28.9 7.3V8.4C29 9.1 29 9.4 28.8 9.5ZM10.6 9.7H21.4C22 9.7 22.5 10.2 22.5 10.8C22.5 11.4 22 11.9 21.4 11.9H10.6C10 11.9 9.5 11.4 9.5 10.8C9.5 10.1 10 9.7 10.6 9.7ZM21.4 15.1H10.6C10 15.1 9.5 15.6 9.5 16.2C9.5 16.8 10 17.3 10.6 17.3H21.4C22 17.3 22.5 16.8 22.5 16.2C22.5 15.6 22 15.1 21.4 15.1ZM17.1 20.5H10.6C10 20.5 9.5 21 9.5 21.6C9.5 22.2 10 22.7 10.6 22.7H17.1C17.7 22.7 18.2 22.2 18.2 21.6C18.1 21 17.7 20.5 17.1 20.5Z" fill="white"/>
</g>
<defs>
<filter id="filter0_d" x="3" y="3" width="25.9657" height="27.1" filterUnits="userSpaceOnUse" color-interpolation-filters="sRGB">
<feFlood flood-opacity="0" result="BackgroundImageFix"/>
<feColorMatrix in="SourceAlpha" type="matrix" values="0 0 0 0 0 0 0 0 0 0 0 0 0 0 0 0 0 0 127 0"/>
<feOffset dy="1"/>
<feColorMatrix type="matrix" values="0 0 0 0 0 0 0 0 0 0 0 0 0 0 0 0 0 0 0.1 0"/>
<feBlend mode="normal" in2="BackgroundImageFix" result="effect1_dropShadow"/>
<feBlend mode="normal" in="SourceGraphic" in2="effect1_dropShadow" result="shape"/>
</filter>
</defs>
</svg>
