<svg width="32" height="32" viewBox="0 0 32 32" fill="none" xmlns="http://www.w3.org/2000/svg">
<path d="M27.9 32H4.2C1.9 32 0 30.1631 0 27.9396V4.06042C0 1.83686 1.9 0 4.2 0H27.8C30.1 0 32 1.83686 32 4.06042V27.9396C32 30.1631 30.2 32 27.9 32Z" fill="#2DB6D8"/>
<g filter="url(#filter0_d)">
<path fill-rule="evenodd" clip-rule="evenodd" d="M7.2 8H24.8C25.4 8 25.9 8.2 26.4 8.6C26.8 9 27 9.6 27 10.2V11.3H5V10.2C5 9.6 5.2 9.1 5.6 8.6C6 8.2 6.6 8 7.2 8Z" fill="white"/>
<path fill-rule="evenodd" clip-rule="evenodd" d="M5.6 22.9002C5.2 22.5002 5 21.9002 5 21.3002V14.7002H27V21.3002C27 21.9002 26.8 22.4002 26.4 22.9002C26 23.3002 25.4 23.5002 24.8 23.5002H7.2C6.6 23.5002 6 23.3002 5.6 22.9002Z" fill="white"/>
<path d="M21.2 18H23.3C23.7 18 24 18.3 24 18.7V20.1C24 20.5 23.7 20.8 23.3 20.8H21.2C20.8 20.8 20.5 20.5 20.5 20.1V18.7C20.5 18.3 20.8 18 21.2 18Z" fill="#2DB6D8"/>
</g>
<defs>
<filter id="filter0_d" x="5" y="8" width="22" height="16.5002" filterUnits="userSpaceOnUse" color-interpolation-filters="sRGB">
<feFlood flood-opacity="0" result="BackgroundImageFix"/>
<feColorMatrix in="SourceAlpha" type="matrix" values="0 0 0 0 0 0 0 0 0 0 0 0 0 0 0 0 0 0 127 0"/>
<feOffset dy="1"/>
<feColorMatrix type="matrix" values="0 0 0 0 0 0 0 0 0 0 0 0 0 0 0 0 0 0 0.1 0"/>
<feBlend mode="normal" in2="BackgroundImageFix" result="effect1_dropShadow"/>
<feBlend mode="normal" in="SourceGraphic" in2="effect1_dropShadow" result="shape"/>
</filter>
</defs>
</svg>
