<svg width="32" height="32" viewBox="0 0 32 32" fill="none" xmlns="http://www.w3.org/2000/svg">
<path d="M27.8 32H4.2C1.9 32 0 30.1576 0 27.9273V4.07273C0 1.84243 1.9 0 4.2 0H27.8C30.1 0 32 1.84243 32 4.07273V28.0242C32 30.1576 30.1 32 27.8 32Z" fill="#2DB6D8"/>
<g filter="url(#filter0_d)">
<path fill-rule="evenodd" clip-rule="evenodd" d="M25.5 13.7H26.7C27.6 13.7 28.3 14.4 28.3 15.3V17.1C28.3 18 27.6 18.7 26.7 18.7H25.5C25.3 19.5 24.9 20.3 24.5 21L25.3 21.8C25.9 22.4 25.9 23.4 25.3 24L24 25.3C23.4 25.9 22.4 25.9 21.8 25.3L20.9 24.4C20.2 24.8 19.4 25.1 18.6 25.3V26.5C18.6 27.4 17.9 28.1 17 28.1H15.2C14.3 28.1 13.6 27.4 13.6 26.5V25.2C12.8 25 12 24.7 11.3 24.2L10.4 25.1C9.8 25.7 8.8 25.7 8.2 25.1L6.9 23.8C6.3 23.2 6.3 22.2 6.9 21.6L7.8 20.7C7.4 20 7.1 19.3 6.9 18.5H5.6C4.7 18.5 4 17.8 4 16.9V15.1C4 14.2 4.7 13.5 5.6 13.5H6.9C7.1 12.7 7.4 12 7.8 11.3L6.9 10.4C6.3 9.8 6.3 8.8 6.9 8.2L8.2 6.9C8.8 6.3 9.8 6.3 10.4 6.9L11.3 7.8C12 7.4 12.7 7.1 13.5 6.9V5.6C13.5 4.7 14.2 4 15.1 4H16.9C17.8 4 18.5 4.7 18.5 5.6V6.9C19.3 7.1 20.1 7.4 20.8 7.8L21.7 6.9C22.3 6.3 23.3 6.3 23.9 6.9L25.2 8.2C25.8 8.8 25.8 9.8 25.2 10.4L24.4 11.2C25 12.1 25.3 12.9 25.5 13.7Z" fill="white"/>
<path fill-rule="evenodd" clip-rule="evenodd" d="M25.5 13.7H26.7C27.6 13.7 28.3 14.4 28.3 15.3V17.1C28.3 18 27.6 18.7 26.7 18.7H25.5C25.3 19.5 24.9 20.3 24.5 21L25.3 21.8C25.9 22.4 25.9 23.4 25.3 24L24 25.3C23.4 25.9 22.4 25.9 21.8 25.3L20.9 24.4C20.2 24.8 19.4 25.1 18.6 25.3V26.5C18.6 27.4 17.9 28.1 17 28.1H15.2C14.3 28.1 13.6 27.4 13.6 26.5V25.2C12.8 25 12 24.7 11.3 24.2L10.4 25.1C9.8 25.7 8.8 25.7 8.2 25.1L6.9 23.8C6.3 23.2 6.3 22.2 6.9 21.6L7.8 20.7C7.4 20 7.1 19.3 6.9 18.5H5.6C4.7 18.5 4 17.8 4 16.9V15.1C4 14.2 4.7 13.5 5.6 13.5H6.9C7.1 12.7 7.4 12 7.8 11.3L6.9 10.4C6.3 9.8 6.3 8.8 6.9 8.2L8.2 6.9C8.8 6.3 9.8 6.3 10.4 6.9L11.3 7.8C12 7.4 12.7 7.1 13.5 6.9V5.6C13.5 4.7 14.2 4 15.1 4H16.9C17.8 4 18.5 4.7 18.5 5.6V6.9C19.3 7.1 20.1 7.4 20.8 7.8L21.7 6.9C22.3 6.3 23.3 6.3 23.9 6.9L25.2 8.2C25.8 8.8 25.8 9.8 25.2 10.4L24.4 11.2C25 12.1 25.3 12.9 25.5 13.7Z" stroke="#242C46"/>
</g>
<path fill-rule="evenodd" clip-rule="evenodd" d="M10.7 15.8C10.7 19 13.3 21.6 16.5 21.6C19.7 21.6 22.3 19 22.3 15.8C22.3 12.6 19.7 10 16.5 10C13.3 10 10.7 12.6 10.7 15.8Z" fill="#2DB6D8"/>
<path fill-rule="evenodd" clip-rule="evenodd" d="M16.2 16.5998H17.9C18.1 16.5998 18.3 16.3998 18.3 16.1998C18.3 15.9998 18.1 15.7998 17.9 15.7998H16.6V14.1998C16.6 13.9998 16.4 13.7998 16.2 13.7998C16 13.7998 15.8 13.9998 15.8 14.1998V16.1998C15.8 16.3998 16 16.5998 16.2 16.5998Z" fill="white"/>
<defs>
<filter id="filter0_d" x="4" y="4" width="24.3" height="25.1" filterUnits="userSpaceOnUse" color-interpolation-filters="sRGB">
<feFlood flood-opacity="0" result="BackgroundImageFix"/>
<feColorMatrix in="SourceAlpha" type="matrix" values="0 0 0 0 0 0 0 0 0 0 0 0 0 0 0 0 0 0 127 0"/>
<feOffset dy="1"/>
<feColorMatrix type="matrix" values="0 0 0 0 0 0 0 0 0 0 0 0 0 0 0 0 0 0 0.1 0"/>
<feBlend mode="normal" in2="BackgroundImageFix" result="effect1_dropShadow"/>
<feBlend mode="normal" in="SourceGraphic" in2="effect1_dropShadow" result="shape"/>
</filter>
</defs>
</svg>
