<svg width="32" height="32" viewBox="0 0 32 32" fill="none" xmlns="http://www.w3.org/2000/svg">
<path d="M27.8 32H4.2C1.9 32 0 30.1576 0 27.9273V4.07273C0 1.84242 1.9 0 4.2 0H27.8C30.1 0 32 1.84242 32 4.07273V27.9273C32 30.1576 30.1 32 27.8 32Z" fill="#2DB6D8"/>
<g filter="url(#filter0_d)">
<path fill-rule="evenodd" clip-rule="evenodd" d="M20.9309 17.68V16.1964C20.9309 13.7527 19.4473 12.0073 17.1782 11.4836V10.8727C17.1782 10.4364 16.7418 10 16.3054 10H15.7818C15.2582 10 14.9091 10.4364 14.9091 10.8727V11.4836C12.64 11.92 11.1564 13.7527 11.1564 16.1964V17.68C11.1564 18.3782 10.8945 19.0764 10.4582 19.7746C10.2836 20.0364 10.1964 20.2982 10.1964 20.6473V20.7346C10.1964 21.52 10.8945 22.2182 11.68 22.2182H20.4073C21.1927 22.2182 21.8909 21.52 21.8909 20.7346V20.6473C21.8909 20.2982 21.8036 20.0364 21.6291 19.7746C21.1927 19.1636 20.9309 18.4655 20.9309 17.68Z" fill="white"/>
<path fill-rule="evenodd" clip-rule="evenodd" d="M6.61818 13.6653C5.83273 14.7126 5.39636 16.0217 5.39636 17.4181C5.39636 18.8144 5.83273 20.1235 6.61818 21.1708C6.79273 21.4326 6.79273 21.7817 6.53091 22.0435C6.26909 22.3053 5.83273 22.3053 5.57091 21.9562C4.61091 20.7344 4 19.0762 4 17.4181C4 15.5853 4.69818 13.8399 5.74546 12.5308C5.83273 12.4435 6.00727 12.4435 6.18182 12.5308L6.44364 12.7926C6.79273 13.0544 6.88 13.4035 6.61818 13.6653Z" fill="white"/>
<path fill-rule="evenodd" clip-rule="evenodd" d="M25.4691 12.88C25.7309 12.6182 26.1673 12.6182 26.4291 12.9673C27.3891 14.1891 28 15.8473 28 17.5054C28 19.2509 27.3891 20.8218 26.4291 22.0436C26.1673 22.3054 25.8182 22.3927 25.4691 22.1309C25.2073 21.8691 25.2073 21.52 25.3818 21.2582C26.1673 20.2109 26.6036 18.9018 26.6036 17.5054C26.6036 16.1091 26.1673 14.8 25.3818 13.7527C25.2073 13.4909 25.2945 13.0545 25.4691 12.88Z" fill="white"/>
<path fill-rule="evenodd" clip-rule="evenodd" d="M23.6364 14.2762C23.8982 14.0144 24.3346 14.1017 24.5964 14.3635C25.2073 15.2362 25.5564 16.2835 25.5564 17.4181C25.5564 18.5526 25.2073 19.6872 24.5964 20.5599C24.3346 20.909 23.9855 20.9963 23.6364 20.6472C23.3746 20.3853 23.3746 20.0363 23.5491 19.8617C23.9855 19.1635 24.3346 18.3781 24.3346 17.5053C24.3346 16.6326 24.0727 15.7599 23.5491 15.149C23.3746 14.7999 23.3746 14.4508 23.6364 14.2762Z" fill="white"/>
<path fill-rule="evenodd" clip-rule="evenodd" d="M7.84001 17.5055C7.84001 16.6327 8.10183 15.76 8.62547 15.1491C8.80001 14.8873 8.71274 14.5382 8.53819 14.3636C8.27638 14.1018 7.84001 14.1018 7.57819 14.4509C6.96728 15.3236 6.61819 16.3709 6.61819 17.5927C6.61819 18.7273 6.96728 19.7745 7.57819 20.7345C7.84001 21.0836 8.1891 21.0836 8.53819 20.8218C8.80001 20.6473 8.80001 20.2109 8.62547 20.0364C8.10183 19.1636 7.84001 18.3782 7.84001 17.5055Z" fill="white"/>
</g>
<defs>
<filter id="filter0_d" x="4" y="10" width="24" height="13.289" filterUnits="userSpaceOnUse" color-interpolation-filters="sRGB">
<feFlood flood-opacity="0" result="BackgroundImageFix"/>
<feColorMatrix in="SourceAlpha" type="matrix" values="0 0 0 0 0 0 0 0 0 0 0 0 0 0 0 0 0 0 127 0"/>
<feOffset dy="1"/>
<feColorMatrix type="matrix" values="0 0 0 0 0 0 0 0 0 0 0 0 0 0 0 0 0 0 0.1 0"/>
<feBlend mode="normal" in2="BackgroundImageFix" result="effect1_dropShadow"/>
<feBlend mode="normal" in="SourceGraphic" in2="effect1_dropShadow" result="shape"/>
</filter>
</defs>
</svg>
