<svg width="32" height="32" viewBox="0 0 32 32" fill="none" xmlns="http://www.w3.org/2000/svg">
<path d="M27.9 32H4.2C1.9 32 0 30.1631 0 27.9396V4.06042C0 1.83686 1.9 0 4.2 0H27.8C30.1 0 32 1.83686 32 4.06042V27.9396C32 30.1631 30.2 32 27.9 32Z" fill="#2DB6D8"/>
<g filter="url(#filter0_d)">
<path fill-rule="evenodd" clip-rule="evenodd" d="M6.82938 19.528L7.42938 19.228L12.9294 22.028C13.8294 22.428 14.8294 22.728 15.8294 22.728C16.9294 22.828 17.9294 22.628 18.6294 22.328L24.6294 19.228C26.2294 20.028 26.4294 21.228 25.1294 21.828L18.2294 25.328C16.9294 26.028 14.6294 25.828 13.1294 25.028L7.22938 22.028C5.82938 21.428 5.52938 20.228 6.82938 19.528Z" fill="white"/>
<path fill-rule="evenodd" clip-rule="evenodd" d="M6.82938 14.4278L7.52938 14.0278L12.8294 16.8278C13.7294 17.2278 14.7294 17.5278 15.7294 17.5278C16.8294 17.5278 17.8294 17.4278 18.5294 17.0278L24.4294 14.0278L24.6294 14.1278C26.2294 14.9278 26.4294 16.1278 25.1294 16.7278L18.2294 20.2278C16.9294 20.9278 14.6294 20.7278 13.1294 19.9278L7.22938 16.9278C5.82938 16.3278 5.52938 15.1278 6.82938 14.4278Z" fill="white"/>
<path fill-rule="evenodd" clip-rule="evenodd" d="M6.82938 8.92796L13.7294 5.42796C15.0294 4.72796 17.2294 4.92796 18.8294 5.72796L24.6294 8.72796C26.2294 9.52796 26.4294 10.728 25.1294 11.328L18.2294 14.828C16.9294 15.528 14.6294 15.328 13.1294 14.528L7.22938 11.528C5.82938 10.828 5.52938 9.62796 6.82938 8.92796Z" fill="white"/>
</g>
<defs>
<filter id="filter0_d" x="6" y="5" width="19.9827" height="21.756" filterUnits="userSpaceOnUse" color-interpolation-filters="sRGB">
<feFlood flood-opacity="0" result="BackgroundImageFix"/>
<feColorMatrix in="SourceAlpha" type="matrix" values="0 0 0 0 0 0 0 0 0 0 0 0 0 0 0 0 0 0 127 0"/>
<feOffset dy="1"/>
<feColorMatrix type="matrix" values="0 0 0 0 0 0 0 0 0 0 0 0 0 0 0 0 0 0 0.1 0"/>
<feBlend mode="normal" in2="BackgroundImageFix" result="effect1_dropShadow"/>
<feBlend mode="normal" in="SourceGraphic" in2="effect1_dropShadow" result="shape"/>
</filter>
</defs>
</svg>
