<svg width="32" height="32" viewBox="0 0 32 32" fill="none" xmlns="http://www.w3.org/2000/svg">
<path d="M27.8 32H4.2C1.9 32 0 30.1576 0 27.9273V4.07273C0 1.84243 1.9 0 4.2 0H27.8C30.1 0 32 1.84243 32 4.07273V28.0242C32 30.1576 30.1 32 27.8 32Z" fill="#2DB6D8"/>
<g filter="url(#filter0_d)">
<path fill-rule="evenodd" clip-rule="evenodd" d="M16.3 28.275L15.3 27.775C9.9 24.775 6 22.575 6 15.375V8.375C6 7.975 6.3 7.675 6.5 7.575L16.3 4.075C16.5 3.975 16.7 3.975 16.9 4.075L26.7 7.575C27.1 7.675 27.3 7.975 27.3 8.375V15.475C27.3 22.575 23.4 24.775 18.1 27.875L18 27.975L17 28.475C16.8 28.575 16.7 28.575 16.6 28.575C16.5 28.575 16.4 28.475 16.3 28.275Z" fill="white"/>
</g>
<path fill-rule="evenodd" clip-rule="evenodd" d="M20.5 20.2751H13C12.5 20.2751 12 19.8751 12 19.2751V13.9751C12 13.4751 12.4 12.9751 13 12.9751H13.1V11.6751C13.1 9.6751 14.7 7.9751 16.8 7.9751C18.8 7.9751 20.5 9.5751 20.5 11.6751V12.9751C21 12.9751 21.5 13.3751 21.5 13.9751V19.3751C21.5 19.8751 21.1 20.2751 20.5 20.2751Z" fill="#2DB6D8"/>
<path fill-rule="evenodd" clip-rule="evenodd" d="M17.3 17.075C17.3 16.975 17.3 16.975 17.4 16.875C17.6 16.675 17.8 16.475 17.8 16.175C17.8 15.775 17.5 15.375 17.1 15.275C16.7 15.175 16.3 15.375 16.1 15.775C15.9 16.175 16 16.575 16.4 16.875C16.5 16.975 16.5 16.975 16.5 17.075V18.275C16.5 18.575 16.8 18.875 17.2 18.675C17.3 18.575 17.4 18.475 17.4 18.275V17.075H17.3Z" fill="white"/>
<path fill-rule="evenodd" clip-rule="evenodd" d="M16.8 10.2749C15.9 10.2749 15.1 11.0749 15.1 11.9749V12.9749H18.5V11.9749C18.5 11.0749 17.8 10.2749 16.8 10.2749Z" fill="white"/>
<defs>
<filter id="filter0_d" x="6" y="4" width="21.3" height="25.575" filterUnits="userSpaceOnUse" color-interpolation-filters="sRGB">
<feFlood flood-opacity="0" result="BackgroundImageFix"/>
<feColorMatrix in="SourceAlpha" type="matrix" values="0 0 0 0 0 0 0 0 0 0 0 0 0 0 0 0 0 0 127 0"/>
<feOffset dy="1"/>
<feColorMatrix type="matrix" values="0 0 0 0 0 0 0 0 0 0 0 0 0 0 0 0 0 0 0.1 0"/>
<feBlend mode="normal" in2="BackgroundImageFix" result="effect1_dropShadow"/>
<feBlend mode="normal" in="SourceGraphic" in2="effect1_dropShadow" result="shape"/>
</filter>
</defs>
</svg>
