<svg width="32" height="32" viewBox="0 0 32 32" fill="none" xmlns="http://www.w3.org/2000/svg">
<path d="M27.8 32H4.2C1.9 32 0 30.1631 0 27.9396V4.06042C0 1.83686 1.9 0 4.2 0H27.8C30.1 0 32 1.83686 32 4.06042V27.9396C32 30.1631 30.1 32 27.8 32Z" fill="#2DB6D8"/>
<g filter="url(#filter0_d)">
<path fill-rule="evenodd" clip-rule="evenodd" d="M8 16C8 11.5874 11.5874 8 16 8C20.4126 8 24 11.5874 24 16C24 20.4126 20.4126 24 16 24C11.5874 24 8 20.4126 8 16ZM13.1451 13.9872C13.8395 13.3381 14.9664 13.3377 15.6612 13.9873L15.6174 13.9463C15.829 14.1441 16.1711 14.1437 16.3823 13.9463L16.3385 13.9873C17.0336 13.3374 18.1598 13.3377 18.8546 13.9872L18.9106 14.0396C19.6965 14.7743 19.6963 15.9642 18.9111 16.6982L16.7658 18.7037C16.3435 19.0984 15.6569 19.0991 15.2339 18.7037L13.0886 16.6982C12.3038 15.9646 12.3036 14.7739 13.0891 14.0396L13.1451 13.9872Z" fill="white"/>
</g>
<defs>
<filter id="filter0_d" x="8" y="8" width="16" height="17" filterUnits="userSpaceOnUse" color-interpolation-filters="sRGB">
<feFlood flood-opacity="0" result="BackgroundImageFix"/>
<feColorMatrix in="SourceAlpha" type="matrix" values="0 0 0 0 0 0 0 0 0 0 0 0 0 0 0 0 0 0 127 0"/>
<feOffset dy="1"/>
<feColorMatrix type="matrix" values="0 0 0 0 0 0 0 0 0 0 0 0 0 0 0 0 0 0 0.1 0"/>
<feBlend mode="normal" in2="BackgroundImageFix" result="effect1_dropShadow"/>
<feBlend mode="normal" in="SourceGraphic" in2="effect1_dropShadow" result="shape"/>
</filter>
</defs>
</svg>
