<svg width="32" height="32" viewBox="0 0 32 32" fill="none" xmlns="http://www.w3.org/2000/svg">
<path d="M27.8 32H4.2C1.9 32 0 30.1631 0 27.9396V4.06042C0 1.83686 1.9 0 4.2 0H27.8C30.1 0 32 1.83686 32 4.06042V27.9396C32 30.1631 30.1 32 27.8 32Z" fill="#2DB6D8"/>
<g filter="url(#filter0_d)">
<path d="M23.8294 11.6278C22.4387 8.31586 19.2454 6 15.5371 6C11.8287 6 8.63544 8.31586 7.24481 11.6278C5.39063 12.0262 4 13.6946 4 15.7366C4 17.903 5.59665 19.6959 7.65685 19.8952C8.58394 21.5636 9.97457 22.9332 11.6742 23.7549C11.803 24.4522 12.3953 25 13.1164 25C13.9147 25 14.5843 24.3277 14.5843 23.481C14.5843 22.6592 13.9404 21.962 13.1164 21.962C12.6528 21.962 12.215 22.211 11.9575 22.5596C10.6956 21.8873 9.63978 20.8912 8.86721 19.6461C8.81571 19.5465 8.73845 19.4469 8.68694 19.3473C8.66119 19.2726 8.60969 19.2228 8.58394 19.1481C8.53243 19.0485 8.48093 18.924 8.42942 18.8244C8.40367 18.7497 8.37792 18.6999 8.35216 18.6252C8.30066 18.5007 8.24915 18.401 8.19765 18.2765C8.1719 18.2018 8.14614 18.152 8.12039 18.0773C8.06889 17.9528 8.04313 17.8283 7.99163 17.7287C7.96588 17.654 7.94012 17.5793 7.94012 17.5046C7.91437 17.3801 7.86287 17.2805 7.83711 17.156C7.81136 17.0564 7.81136 16.9817 7.78561 16.882C7.75986 16.7824 7.7341 16.6828 7.7341 16.5583C7.70835 16.4338 7.70835 16.3093 7.6826 16.2097C7.6826 16.135 7.65685 16.0354 7.65685 15.9607C7.63109 15.7366 7.63109 15.5374 7.63109 15.3132C7.63109 14.9895 7.65685 14.6907 7.6826 14.367C7.6826 14.2923 7.70835 14.1927 7.70835 14.118C7.7341 13.8938 7.78561 13.6697 7.83711 13.4456C7.86287 13.3709 7.86287 13.2962 7.88862 13.2215C7.94012 12.9725 8.01738 12.7484 8.09464 12.5242C8.12039 12.4744 8.12039 12.4246 8.14614 12.3748C8.24915 12.1009 8.37792 11.827 8.50668 11.5531C9.82005 8.9384 12.4726 7.17038 15.5113 7.17038C18.5501 7.17038 21.2026 8.9633 22.516 11.5531C22.6448 11.827 22.7735 12.076 22.8765 12.3748C22.9023 12.4246 22.9023 12.4744 22.928 12.5242C23.0053 12.7484 23.0826 12.9974 23.1341 13.2215C23.1598 13.2962 23.1856 13.3709 23.1856 13.4456C23.2371 13.6697 23.2886 13.8938 23.3143 14.118C23.3143 14.1927 23.3401 14.2674 23.3401 14.367C23.3658 14.6658 23.3916 14.9895 23.3916 15.3132C23.3916 15.5124 23.3916 15.7117 23.3658 15.886C23.3658 15.9607 23.3658 16.0105 23.3401 16.0852C23.3401 16.2097 23.3143 16.3342 23.2886 16.4587C23.2886 16.5334 23.2628 16.6081 23.2628 16.6828C23.2371 16.7824 23.2371 16.9069 23.2113 17.0066C23.1856 17.0813 23.1856 17.1809 23.1598 17.2556C23.1341 17.3552 23.1083 17.4548 23.0826 17.5544C23.0568 17.6291 23.0311 17.7287 23.0053 17.8034C22.9795 17.903 22.9538 17.9777 22.9023 18.0773C22.8765 18.152 22.8508 18.2516 22.825 18.3263C22.7993 18.4259 22.7478 18.5007 22.722 18.6003C22.6963 18.675 22.6448 18.7497 22.619 18.8244C22.5418 18.9738 22.4645 19.1232 22.3872 19.2726C22.3872 19.2726 22.3872 19.2975 22.3615 19.2975C22.2585 19.4718 22.1555 19.6461 22.0525 19.7955C22.3357 19.8702 22.6448 19.8952 22.9538 19.8952C23.0826 19.8952 23.2113 19.8952 23.3401 19.8702C25.4003 19.671 26.9969 17.8781 26.9969 15.7117C27.0742 13.6946 25.6836 12.0013 23.8294 11.6278Z" fill="white"/>
</g>
<defs>
<filter id="filter0_d" x="4" y="6" width="23" height="20" filterUnits="userSpaceOnUse" color-interpolation-filters="sRGB">
<feFlood flood-opacity="0" result="BackgroundImageFix"/>
<feColorMatrix in="SourceAlpha" type="matrix" values="0 0 0 0 0 0 0 0 0 0 0 0 0 0 0 0 0 0 127 0"/>
<feOffset dy="1"/>
<feColorMatrix type="matrix" values="0 0 0 0 0 0 0 0 0 0 0 0 0 0 0 0 0 0 0.1 0"/>
<feBlend mode="normal" in2="BackgroundImageFix" result="effect1_dropShadow"/>
<feBlend mode="normal" in="SourceGraphic" in2="effect1_dropShadow" result="shape"/>
</filter>
</defs>
</svg>
