<svg width="32" height="32" viewBox="0 0 32 32" fill="none" xmlns="http://www.w3.org/2000/svg">
<path d="M27.8 32H4.2C1.9 32 0 30.1576 0 27.9273V4.07273C0 1.84243 1.9 0 4.2 0H27.8C30.1 0 32 1.84243 32 4.07273V28.0242C32 30.1576 30.1 32 27.8 32Z" fill="#2DB6D8"/>
<g filter="url(#filter0_d)">
<path d="M18.7 6C14 6 10.2 9.3 10.2 13.4C10.2 17.5 14 20.8 18.7 20.8C20.4 20.8 22 20.4 23.3 19.6C24.5 20.3 25.8 20.3 26.5 20.2C26.7 20.2 26.8 19.9 26.6 19.8C25.9 19.3 25.5 18.7 25.3 18.1C26.5 16.8 27.2 15.2 27.2 13.4C27.2 9.3 23.4 6 18.7 6ZM15.5 14.3C15 14.3 14.6 13.9 14.6 13.4C14.6 12.9 15 12.5 15.5 12.5C16 12.5 16.4 12.9 16.4 13.4C16.5 13.9 16.1 14.3 15.5 14.3ZM18.7 14.3C18.2 14.3 17.8 13.9 17.8 13.4C17.8 12.9 18.2 12.5 18.7 12.5C19.2 12.5 19.6 12.9 19.6 13.4C19.7 13.9 19.3 14.3 18.7 14.3ZM22 14.3C21.5 14.3 21.1 13.9 21.1 13.4C21.1 12.9 21.5 12.5 22 12.5C22.5 12.5 22.9 12.9 22.9 13.4C22.9 13.9 22.5 14.3 22 14.3ZM7.4 24.4C6.5 23.4 6 22.2 6 20.8C6 18.8 7.1 17.1 8.9 16C9.8 19.7 13.5 22.5 17.9 22.5C18.2 22.5 18.5 22.5 18.8 22.5C17.9 24.9 15.4 26.6 12.5 26.6C11.2 26.6 10 26.3 8.9 25.7C8 26.3 7 26.2 6.4 26.2C6.2 26.2 6.2 26 6.3 25.9C6.9 25.4 7.3 24.9 7.4 24.4Z" fill="white"/>
</g>
<defs>
<filter id="filter0_d" x="6" y="6" width="21.2" height="21.6" filterUnits="userSpaceOnUse" color-interpolation-filters="sRGB">
<feFlood flood-opacity="0" result="BackgroundImageFix"/>
<feColorMatrix in="SourceAlpha" type="matrix" values="0 0 0 0 0 0 0 0 0 0 0 0 0 0 0 0 0 0 127 0"/>
<feOffset dy="1"/>
<feColorMatrix type="matrix" values="0 0 0 0 0 0 0 0 0 0 0 0 0 0 0 0 0 0 0.1 0"/>
<feBlend mode="normal" in2="BackgroundImageFix" result="effect1_dropShadow"/>
<feBlend mode="normal" in="SourceGraphic" in2="effect1_dropShadow" result="shape"/>
</filter>
</defs>
</svg>
