<svg width="32" height="32" viewBox="0 0 32 32" fill="none" xmlns="http://www.w3.org/2000/svg">
<path d="M27.8 32H4.2C1.9 32 0 30.1576 0 27.9273V4.07273C0 1.84242 1.9 0 4.2 0H27.8C30.1 0 32 1.84242 32 4.07273V27.9273C32 30.1576 30.1 32 27.8 32Z" fill="#2DB6D8"/>
<g filter="url(#filter0_d)">
<path fill-rule="evenodd" clip-rule="evenodd" d="M10.6 7.3C10.6 9.1 9.1 10.6 7.3 10.6C5.5 10.6 4 9.1 4 7.3C4 5.5 5.5 4 7.3 4C9.1 4 10.6 5.5 10.6 7.3Z" fill="white"/>
<path fill-rule="evenodd" clip-rule="evenodd" d="M6.80002 6.2998C6.80002 5.9998 6.60002 5.7998 6.30002 5.7998C6.00002 5.7998 5.80002 6.0998 5.80002 6.2998C5.80002 6.4998 6.00002 6.7998 6.30002 6.7998C6.60002 6.7998 6.80002 6.5998 6.80002 6.2998ZM7.80002 8.2998C7.80002 8.5998 8.00002 8.7998 8.30002 8.7998C8.60002 8.7998 8.80002 8.4998 8.80002 8.2998C8.80002 7.9998 8.50002 7.7998 8.30002 7.7998C8.00002 7.7998 7.80002 7.9998 7.80002 8.2998ZM5.90002 8.2998L8.30002 5.8998C8.30002 5.7998 8.40002 5.7998 8.60002 5.7998C8.70002 5.7998 8.80002 5.7998 8.90002 5.8998C9.00002 5.9998 9.00002 6.0998 9.00002 6.1998C9.00002 6.2998 9.00002 6.3998 8.90002 6.4998L6.50002 8.8998C6.40002 8.9998 6.30002 8.9998 6.20002 8.9998C6.10002 8.9998 6.00002 8.9998 5.90002 8.8998C5.80002 8.7998 5.80002 8.6998 5.80002 8.5998C5.80002 8.4998 5.80002 8.3998 5.90002 8.2998Z" fill="#2DB6D8"/>
<path fill-rule="evenodd" clip-rule="evenodd" d="M20.575 9.9001H10.4C11.0875 9.2001 11.5 8.3001 11.5 7.3001C11.5 6.3001 11.0875 5.3001 10.4 4.6001H20.575C20.9875 4.6001 21.4 4.9001 21.4 5.3001V9.1001C21.4 9.6001 20.9875 9.9001 20.575 9.9001Z" fill="white"/>
<path fill-rule="evenodd" clip-rule="evenodd" d="M27.2971 13.7H10.4C11.0449 14.4 11.4319 15.3 11.4319 16.4C11.4319 17.4 11.0449 18.4 10.4 19.1H27.4261C27.813 19.1 28.2 18.8 28.2 18.4V14.5C28.071 14 27.6841 13.7 27.2971 13.7Z" fill="white"/>
<path fill-rule="evenodd" clip-rule="evenodd" d="M10.4 22.7H23.4333C23.8167 22.7 24.2 23 24.2 23.4V27.3C24.2 27.7 23.8167 28 23.4333 28H10.4C11.0389 27.3 11.4222 26.4 11.4222 25.3C11.4222 24.3 11.0389 23.4 10.4 22.7Z" fill="white"/>
<path fill-rule="evenodd" clip-rule="evenodd" d="M7.3 19.6C9.1 19.6 10.6 18.1 10.6 16.3C10.6 14.5 9.1 13 7.3 13C5.5 13 4 14.5 4 16.3C4 18.1 5.5 19.6 7.3 19.6Z" fill="white"/>
<path fill-rule="evenodd" clip-rule="evenodd" d="M8.30002 17.8999C8.00002 17.8999 7.80002 17.5999 7.80002 17.3999C7.80002 17.0999 8.10002 16.8999 8.30002 16.8999C8.60002 16.8999 8.80002 17.1999 8.80002 17.3999C8.80002 17.5999 8.60002 17.8999 8.30002 17.8999Z" fill="#2DB6D8"/>
<path fill-rule="evenodd" clip-rule="evenodd" d="M6.30002 14.7998C6.60002 14.7998 6.80002 15.0998 6.80002 15.2998C6.80002 15.5998 6.50002 15.7998 6.30002 15.7998C6.00002 15.7998 5.80002 15.4998 5.80002 15.2998C5.80002 14.9998 6.00002 14.7998 6.30002 14.7998Z" fill="#2DB6D8"/>
<path fill-rule="evenodd" clip-rule="evenodd" d="M5.90002 17.2998L8.30002 14.8998C8.40002 14.7998 8.50002 14.7998 8.60002 14.7998C8.70002 14.7998 8.80002 14.7998 8.90002 14.8998C9.00002 14.9998 9.00002 15.0998 9.00002 15.1998C9.00002 15.2998 9.00002 15.3998 8.90002 15.4998L6.50002 17.8998C6.40002 17.9998 6.30002 17.9998 6.20002 17.9998C6.10002 17.9998 6.00002 17.9998 5.90002 17.8998C5.80002 17.7998 5.80002 17.6998 5.80002 17.5998C5.80002 17.4998 5.80002 17.2998 5.90002 17.2998Z" fill="#2DB6D8"/>
<path fill-rule="evenodd" clip-rule="evenodd" d="M4 25.3C4 23.5 5.5 22 7.3 22C9.1 22 10.6 23.5 10.6 25.3C10.6 27.1 9.1 28.6 7.3 28.6C5.5 28.6 4 27.1 4 25.3Z" fill="white"/>
<path fill-rule="evenodd" clip-rule="evenodd" d="M6.80002 24.2998C6.80002 23.9998 6.60002 23.7998 6.30002 23.7998C6.00002 23.7998 5.80002 24.0998 5.80002 24.2998C5.80002 24.5998 6.00002 24.7998 6.30002 24.7998C6.60002 24.8998 6.80002 24.5998 6.80002 24.2998Z" fill="#2DB6D8"/>
<path fill-rule="evenodd" clip-rule="evenodd" d="M7.80002 26.2998C7.80002 26.5998 8.00002 26.7998 8.30002 26.7998C8.60002 26.7998 8.90002 26.4998 8.80002 26.2998C8.80002 25.9998 8.50002 25.7998 8.30002 25.7998C8.00002 25.7998 7.80002 25.9998 7.80002 26.2998Z" fill="#2DB6D8"/>
<path fill-rule="evenodd" clip-rule="evenodd" d="M6.40001 26.8L8.80001 24.4C8.90001 24.3 8.90001 24.2 8.90001 24.1C8.90001 24 8.90001 23.9 8.80001 23.8C8.70001 23.7 8.60001 23.7 8.50001 23.7C8.40001 23.7 8.30001 23.7 8.20001 23.8L5.80001 26.2C5.70001 26.3 5.70001 26.4 5.70001 26.5C5.70001 26.6 5.70001 26.7 5.80001 26.8C5.90001 26.9 6.00001 26.9 6.10001 26.9C6.20001 26.9 6.30001 26.8 6.40001 26.8Z" fill="#2DB6D8"/>
</g>
<defs>
<filter id="filter0_d" x="4" y="4" width="24.2" height="25.6" filterUnits="userSpaceOnUse" color-interpolation-filters="sRGB">
<feFlood flood-opacity="0" result="BackgroundImageFix"/>
<feColorMatrix in="SourceAlpha" type="matrix" values="0 0 0 0 0 0 0 0 0 0 0 0 0 0 0 0 0 0 127 0"/>
<feOffset dy="1"/>
<feColorMatrix type="matrix" values="0 0 0 0 0 0 0 0 0 0 0 0 0 0 0 0 0 0 0.1 0"/>
<feBlend mode="normal" in2="BackgroundImageFix" result="effect1_dropShadow"/>
<feBlend mode="normal" in="SourceGraphic" in2="effect1_dropShadow" result="shape"/>
</filter>
</defs>
</svg>
