<svg width="32" height="32" viewBox="0 0 32 32" fill="none" xmlns="http://www.w3.org/2000/svg">
<path d="M27.8 32H4.2C1.9 32 0 30.1631 0 27.9396V4.06042C0 1.83686 1.9 0 4.2 0H27.8C30.1 0 32 1.83686 32 4.06042V27.9396C32 30.1631 30.1 32 27.8 32Z" fill="#2DB6D8"/>
<g filter="url(#filter0_d)">
<path fill-rule="evenodd" clip-rule="evenodd" d="M20.9 9.15C21.1 9.15 21.2 9.05 21.3 8.95C21.5 8.75 21.5 8.35 21.3 8.05L19.9 6.65H23.9V12.15C23.9 12.45 24.2 12.75 24.5 12.75C24.8 12.75 25.1 12.45 25.1 12.15V6.25V6.15V6.05C25.1 5.75 24.8 5.45 24.5 5.45H19.9L21.3 4.05C21.5 3.85 21.5 3.45 21.3 3.15C21.1 2.95 20.7 2.95 20.4 3.15L18 5.55L17.9 5.65C17.9 5.65 17.9 5.65 17.9 5.75C17.9 5.75 17.9 5.75 17.9 5.85C17.9 5.95 17.9 6.05 17.9 6.05C17.9 6.05 17.9 6.05 17.9 6.15L18 6.25L20.4 8.65H20.5C20.7 9.15 20.8 9.15 20.9 9.15Z" fill="white"/>
<path fill-rule="evenodd" clip-rule="evenodd" d="M14.7 24.75C14.7 24.65 14.7 24.65 14.7 24.75C14.7 24.65 14.7 24.65 14.7 24.75C14.6 24.65 14.6 24.65 14.7 24.75C14.6 24.65 14.6 24.65 14.6 24.65L14.5 24.55L12.1 22.05C11.9 21.85 11.5 21.85 11.2 22.05C11 22.25 11 22.65 11.2 22.95L12.6 24.35H8.59999V18.85C8.59999 18.55 8.29999 18.25 7.99999 18.25C7.69999 18.25 7.39999 18.55 7.39999 18.85V24.75V24.85V24.95C7.39999 25.25 7.69999 25.55 7.99999 25.55H12.6L11.2 26.95C11 27.15 11 27.55 11.2 27.85C11.3 27.95 11.5 28.05 11.6 28.05C11.7 28.05 11.9 27.95 12 27.85L14.4 25.45L14.5 25.35C14.7 24.85 14.7 24.85 14.7 24.75Z" fill="white"/>
<path fill-rule="evenodd" clip-rule="evenodd" d="M28.3 25.5499C28.3 23.6499 26.6 22.1499 24.4 22.1499H22.4C20.3 22.1499 18.5 23.6499 18.5 25.5499V25.9499C18.5 26.4499 19 26.9499 19.6 26.9499H27.2C27.8 26.9499 28.3 26.5499 28.3 25.9499V25.5499Z" fill="white"/>
<path d="M23.5 21.1502C24.9359 21.1502 26.1 19.9861 26.1 18.5502C26.1 17.1143 24.9359 15.9502 23.5 15.9502C22.0641 15.9502 20.9 17.1143 20.9 18.5502C20.9 19.9861 22.0641 21.1502 23.5 21.1502Z" fill="white"/>
<path fill-rule="evenodd" clip-rule="evenodd" d="M12.8 13.5499C12.8 11.6499 11.1 10.1499 8.9 10.1499H6.9C4.8 10.1499 3 11.6499 3 13.5499V13.9499C3 14.4499 3.5 14.9499 4.1 14.9499H11.7C12.3 14.9499 12.8 14.5499 12.8 13.9499V13.5499Z" fill="white"/>
<path d="M7.89999 9.1502C9.33593 9.1502 10.5 7.98614 10.5 6.5502C10.5 5.11426 9.33593 3.9502 7.89999 3.9502C6.46405 3.9502 5.29999 5.11426 5.29999 6.5502C5.29999 7.98614 6.46405 9.1502 7.89999 9.1502Z" fill="white"/>
</g>
<defs>
<filter id="filter0_d" x="3" y="3" width="25.3" height="26.05" filterUnits="userSpaceOnUse" color-interpolation-filters="sRGB">
<feFlood flood-opacity="0" result="BackgroundImageFix"/>
<feColorMatrix in="SourceAlpha" type="matrix" values="0 0 0 0 0 0 0 0 0 0 0 0 0 0 0 0 0 0 127 0"/>
<feOffset dy="1"/>
<feColorMatrix type="matrix" values="0 0 0 0 0 0 0 0 0 0 0 0 0 0 0 0 0 0 0.1 0"/>
<feBlend mode="normal" in2="BackgroundImageFix" result="effect1_dropShadow"/>
<feBlend mode="normal" in="SourceGraphic" in2="effect1_dropShadow" result="shape"/>
</filter>
</defs>
</svg>
