<svg width="32" height="32" viewBox="0 0 32 32" fill="none" xmlns="http://www.w3.org/2000/svg">
<path d="M27.8 32H4.2C1.9 32 0 30.1576 0 27.9273V4.07273C0 1.84242 1.9 0 4.2 0H27.8C30.1 0 32 1.84242 32 4.07273V28.0242C32 30.1576 30.1 32 27.8 32Z" fill="#2DB6D8"/>
<g filter="url(#filter0_d)">
<path d="M10.1415 21.8657C10.7415 22.4657 10.7415 23.3657 10.1415 23.8657L8.84145 25.1657C8.74145 25.2657 8.74145 25.5657 8.94145 25.5657C10.2415 25.8657 11.6415 25.5657 12.6415 24.5657C13.7415 23.4657 13.9415 21.9657 13.5415 20.6657C13.5415 20.5657 13.5415 20.4657 13.6415 20.3657L21.6415 12.3657C21.7415 12.2657 21.8415 12.2657 21.9415 12.2657C23.2415 12.7657 24.8415 12.4657 25.8415 11.3657C26.8415 10.3657 27.1415 8.96572 26.8415 7.66572C26.7415 7.46572 26.5415 7.36572 26.3415 7.56572L25.0415 8.86572C24.4415 9.46572 23.5415 9.46572 23.0415 8.86572C22.4415 8.26572 22.4415 7.36572 23.0415 6.86572L24.3415 5.56572C24.4415 5.46572 24.4415 5.16572 24.2415 5.06572C22.9415 4.76572 21.5415 4.96572 20.5415 6.06572C19.4415 7.16572 19.2415 8.66572 19.6415 9.96572C19.6415 10.0657 19.6415 10.1657 19.5415 10.2657L11.5415 18.2657C11.4415 18.3657 11.3415 18.3657 11.2415 18.3657C9.84145 17.9657 8.34145 18.2657 7.34145 19.3657C6.34145 20.3657 6.04145 21.7657 6.34145 23.0657C6.44145 23.2657 6.64145 23.3657 6.84145 23.1657L8.14145 21.8657C8.64145 21.2657 9.54145 21.2657 10.1415 21.8657Z" fill="white"/>
<path d="M20.5414 16.8657L18.0414 19.3657C17.9414 19.4657 17.9414 19.7657 18.0414 19.9657L24.1414 26.0657C24.9414 26.8657 26.3414 26.9657 27.1414 26.1657C28.0414 25.3657 28.0414 23.9657 27.2414 23.0657L21.1414 16.9657C20.9414 16.7657 20.6414 16.7657 20.5414 16.8657Z" fill="white"/>
<path d="M6.04142 6.96569C6.14142 7.06569 6.14142 7.06568 6.24142 7.16568L7.34142 7.76568L7.44142 7.86569L12.8414 13.4657C12.9414 13.6657 13.2414 13.6657 13.4414 13.4657L14.1414 12.7657C14.2414 12.5657 14.2414 12.3657 14.1414 12.1657L8.74142 6.56569L8.64142 6.46569L8.04142 5.26568C8.04142 5.16568 7.94142 5.16569 7.94142 5.06569L6.44142 4.06569C6.24142 3.96569 6.04142 3.96568 5.84142 4.16568L5.14142 4.86569C5.04142 5.06569 4.94142 5.26569 5.04142 5.46569L6.04142 6.96569Z" fill="white"/>
</g>
<defs>
<filter id="filter0_d" x="5" y="4" width="22.8295" height="23.7181" filterUnits="userSpaceOnUse" color-interpolation-filters="sRGB">
<feFlood flood-opacity="0" result="BackgroundImageFix"/>
<feColorMatrix in="SourceAlpha" type="matrix" values="0 0 0 0 0 0 0 0 0 0 0 0 0 0 0 0 0 0 127 0"/>
<feOffset dy="1"/>
<feColorMatrix type="matrix" values="0 0 0 0 0 0 0 0 0 0 0 0 0 0 0 0 0 0 0.1 0"/>
<feBlend mode="normal" in2="BackgroundImageFix" result="effect1_dropShadow"/>
<feBlend mode="normal" in="SourceGraphic" in2="effect1_dropShadow" result="shape"/>
</filter>
</defs>
</svg>
