<svg width="32" height="32" viewBox="0 0 32 32" fill="none" xmlns="http://www.w3.org/2000/svg">
<path d="M27.8 32H4.2C1.9 32 0 30.1576 0 27.9273V4.07273C0 1.84243 1.9 0 4.2 0H27.8C30.1 0 32 1.84243 32 4.07273V28.0242C32 30.2545 30.1 32 27.8 32Z" fill="#2DB6D8"/>
<g filter="url(#filter0_d)">
<path fill-rule="evenodd" clip-rule="evenodd" d="M12.7 18C11.5 18 10.6 19 10.6 20.1V26C10.6 27.2 11.6 28.1 12.7 28.1H20.8C22 28.1 22.9 27.1 22.9 26V20.2C22.9 19 21.9 18.1 20.8 18.1H12.7V18ZM24.3 20.9L26.9 19.7C27.3 19.5 27.7 19.8 27.7 20.2V25.7C27.7 26.1 27.3 26.4 26.9 26.2L24.3 25C24.1 24.9 24 24.7 24 24.5V21.5C24 21.2 24.1 21 24.3 20.9Z" fill="white"/>
<path fill-rule="evenodd" clip-rule="evenodd" d="M14.4 9.2C16.1 9.2 17.5 7.8 17.5 6.1C17.5 4.4 16.1 3 14.4 3C12.7 3 11.3 4.4 11.3 6.1C11.3 7.8 12.7 9.2 14.4 9.2ZM15.6 10.4C18.1 10.4 20.2 12.2 20.2 14.5V15C20.2 15.6 19.6 16.1 18.9 16.1H10.8H4C3.5 16.1 3 15.7 3 15.2V14.8C3 13.1 4.6 11.7 6.5 11.7H8.3C8.7 11.7 9.1 11.8 9.5 11.9C10.3 10.9 11.7 10.3 13.2 10.3H15.6V10.4ZM7.4 10.8C8.7 10.8 9.8 9.7 9.8 8.4C9.8 7.1 8.7 6 7.4 6C6.1 6 5 7.1 5 8.4C5.1 9.8 6.1 10.8 7.4 10.8Z" fill="white"/>
</g>
<defs>
<filter id="filter0_d" x="3" y="3" width="24.7" height="26.1" filterUnits="userSpaceOnUse" color-interpolation-filters="sRGB">
<feFlood flood-opacity="0" result="BackgroundImageFix"/>
<feColorMatrix in="SourceAlpha" type="matrix" values="0 0 0 0 0 0 0 0 0 0 0 0 0 0 0 0 0 0 127 0"/>
<feOffset dy="1"/>
<feColorMatrix type="matrix" values="0 0 0 0 0 0 0 0 0 0 0 0 0 0 0 0 0 0 0.1 0"/>
<feBlend mode="normal" in2="BackgroundImageFix" result="effect1_dropShadow"/>
<feBlend mode="normal" in="SourceGraphic" in2="effect1_dropShadow" result="shape"/>
</filter>
</defs>
</svg>
