<svg width="32" height="32" viewBox="0 0 32 32" fill="none" xmlns="http://www.w3.org/2000/svg">
<path d="M27.8 32H4.2C1.9 32 0 30.1576 0 27.9273V4.07273C0 1.84243 1.9 0 4.2 0H27.8C30.1 0 32 1.84243 32 4.07273V28.0242C32 30.2545 30.1 32 27.8 32Z" fill="#2DB6D8"/>
<g filter="url(#filter0_d)">
<path d="M20.3262 25.9812C18.8898 25.7728 17.5243 25.2227 16.3446 24.3772C14.9774 23.4249 13.7216 22.322 12.6006 21.0894C11.2237 19.6178 9.82149 18.1652 8.60642 16.5423C7.64992 15.239 6.79432 13.8725 6.32764 12.3022C6.0031 11.3038 5.91812 10.243 6.07958 9.20566C6.2898 7.96747 6.94568 6.96052 7.84332 6.11753C8.21354 5.78645 8.61562 5.49281 9.04367 5.24092C9.29851 5.07903 9.59518 4.99534 9.89705 5.0002C10.1989 5.00506 10.4928 5.09824 10.7422 5.26825C11.9375 5.9795 12.8535 7.07805 13.3385 8.3816C13.4216 8.56525 13.4539 8.76784 13.4321 8.96824C13.4103 9.16865 13.3351 9.35953 13.2144 9.52099C12.9138 9.92671 12.6006 10.3219 12.2979 10.7277C12.0309 11.0871 11.7534 11.4403 11.5159 11.8187C11.3936 11.9911 11.3288 12.1977 11.3307 12.409C11.3325 12.6204 11.401 12.8257 11.5264 12.9959C12.1255 13.8368 12.7057 14.7029 13.3574 15.5038C14.5365 16.9635 15.8421 18.3162 17.2591 19.5464C17.5744 19.8175 17.9128 20.0572 18.2492 20.3032C18.3925 20.4145 18.5647 20.4824 18.7454 20.4988C18.9261 20.5152 19.1078 20.4794 19.2688 20.3957C19.6292 20.218 19.98 20.0215 20.3199 19.807C20.7907 19.5064 21.2532 19.1974 21.7157 18.901C21.9064 18.779 22.127 18.7121 22.3533 18.7076C22.5796 18.7032 22.8028 18.7613 22.9981 18.8758C24.1908 19.4675 25.163 20.4251 25.773 21.6086C25.9444 21.9042 26.0218 22.245 25.9947 22.5856C25.9677 22.9262 25.8375 23.2505 25.6216 23.5153C24.4591 25.0415 22.9728 25.9833 20.9968 26.0253C20.7726 26.0221 20.5488 26.0073 20.3262 25.9812V25.9812Z" fill="white"/>
<path d="M16.9583 15.0362C17.2958 15.0362 17.5695 14.7625 17.5695 14.4249C17.5695 14.0874 17.2958 13.8137 16.9583 13.8137C16.6207 13.8137 16.347 14.0874 16.347 14.4249C16.347 14.7625 16.6207 15.0362 16.9583 15.0362Z" fill="white"/>
<path d="M18.6774 13.5205C19.1275 13.5205 19.4924 13.1557 19.4924 12.7056C19.4924 12.2555 19.1275 11.8906 18.6774 11.8906C18.2274 11.8906 17.8625 12.2555 17.8625 12.7056C17.8625 13.1557 18.2274 13.5205 18.6774 13.5205Z" fill="white"/>
<path d="M20.7041 11.6976C21.2666 11.6976 21.7226 11.2416 21.7226 10.6791C21.7226 10.1166 21.2666 9.66064 20.7041 9.66064C20.1416 9.66064 19.6856 10.1166 19.6856 10.6791C19.6856 11.2416 20.1416 11.6976 20.7041 11.6976Z" fill="white"/>
<path d="M23.0089 9.59673C23.684 9.59673 24.2313 9.04942 24.2313 8.37429C24.2313 7.69916 23.684 7.15186 23.0089 7.15186C22.3338 7.15186 21.7865 7.69916 21.7865 8.37429C21.7865 9.04942 22.3338 9.59673 23.0089 9.59673Z" fill="white"/>
</g>
<defs>
<filter id="filter0_d" x="6" y="5" width="20" height="22.0253" filterUnits="userSpaceOnUse" color-interpolation-filters="sRGB">
<feFlood flood-opacity="0" result="BackgroundImageFix"/>
<feColorMatrix in="SourceAlpha" type="matrix" values="0 0 0 0 0 0 0 0 0 0 0 0 0 0 0 0 0 0 127 0"/>
<feOffset dy="1"/>
<feColorMatrix type="matrix" values="0 0 0 0 0 0 0 0 0 0 0 0 0 0 0 0 0 0 0.1 0"/>
<feBlend mode="normal" in2="BackgroundImageFix" result="effect1_dropShadow"/>
<feBlend mode="normal" in="SourceGraphic" in2="effect1_dropShadow" result="shape"/>
</filter>
</defs>
</svg>
