<?xml version="1.0" encoding="iso-8859-1"?>
<!-- Generator: Adobe Illustrator 19.0.0, SVG Export Plug-In . SVG Version: 6.00 Build 0)  -->
<svg version="1.1" id="Layer_1" xmlns="http://www.w3.org/2000/svg" xmlns:xlink="http://www.w3.org/1999/xlink" x="0px" y="0px"
	 viewBox="0 0 511.999 511.999" style="enable-background:new 0 0 511.999 511.999;" xml:space="preserve">
<pattern  x="-50" y="652" width="40.536" height="40.536" patternUnits="userSpaceOnUse" id="Unnamed_Pattern_34" viewBox="0 -40.536 40.536 40.536" style="overflow:visible;">
	<g>
		<polygon style="fill:none;" points="0,0 40.536,0 40.536,-40.536 0,-40.536 		"/>
		<polygon style="fill:none;" points="0,-40.536 40.536,-40.536 40.536,0 0,0 		"/>
		<polygon style="fill:#FFF1D8;" points="40.536,-40.536 0,-40.536 0,0 40.536,0 		"/>
	</g>
</pattern>
<pattern  x="-50" y="652" width="40.536" height="40.536" patternUnits="userSpaceOnUse" id="Unnamed_Pattern_7" viewBox="0 -40.536 40.536 40.536" style="overflow:visible;">
	<g>
		<polygon style="fill:none;" points="0,0 40.536,0 40.536,-40.536 0,-40.536 		"/>
		<polygon style="fill:none;" points="0,-40.536 40.536,-40.536 40.536,0 0,0 		"/>
		<polygon style="fill:#D1FEFF;" points="40.536,-40.536 0,-40.536 0,0 40.536,0 		"/>
	</g>
</pattern>
<pattern  x="-50" y="652" width="40.536" height="40.536" patternUnits="userSpaceOnUse" id="Unnamed_Pattern_8" viewBox="0 -40.536 40.536 40.536" style="overflow:visible;">
	<g>
		<polygon style="fill:none;" points="0,0 40.536,0 40.536,-40.536 0,-40.536 		"/>
		<polygon style="fill:none;" points="0,-40.536 40.536,-40.536 40.536,0 0,0 		"/>
		<polygon style="fill:#A2CDCE;" points="40.536,-40.536 0,-40.536 0,0 40.536,0 		"/>
	</g>
</pattern>
<pattern  x="-50" y="652" width="40.536" height="40.536" patternUnits="userSpaceOnUse" id="Unnamed_Pattern_9" viewBox="0 -40.536 40.536 40.536" style="overflow:visible;">
	<g>
		<polygon style="fill:none;" points="0,0 40.536,0 40.536,-40.536 0,-40.536 		"/>
		<polygon style="fill:none;" points="0,-40.536 40.536,-40.536 40.536,0 0,0 		"/>
		<polygon style="fill:#BDEFF0;" points="40.536,-40.536 0,-40.536 0,0 40.536,0 		"/>
	</g>
</pattern>
<path style="fill:#C6C5CA;" d="M81.625,435.919C36.617,435.919,0,399.304,0,354.294c0-38.92,27.38-71.565,63.891-79.683V75.748
	c0-9.794,7.94-17.734,17.734-17.734s17.734,7.94,17.734,17.734v214.657c0,9.794-7.94,17.734-17.734,17.734
	c-25.451,0-46.157,20.706-46.157,46.156c0,25.45,20.706,46.157,46.157,46.157s46.157-20.707,46.157-46.157
	c0-9.794,7.94-17.734,17.734-17.734s17.734,7.94,17.734,17.734C163.248,399.304,126.632,435.919,81.625,435.919z"/>
<g>
	<path style="fill:#ACABB1;" d="M81.625,308.138c9.794,0,17.734-7.94,17.734-17.734V75.748c0-9.794-7.94-17.734-17.734-17.734
		V308.138z"/>
	<path style="fill:#ACABB1;" d="M145.514,336.561c-9.794,0-17.734,7.94-17.734,17.734c0,25.45-20.706,46.157-46.157,46.157v35.467
		c45.008,0,81.625-36.617,81.625-81.625C163.248,344.501,155.308,336.561,145.514,336.561z"/>
</g>
<path style="fill:#FFDA44;" d="M504.916,365.871h7.083v-63.99c0-4.089-2.464-7.776-6.242-9.341c-3.776-1.565-8.127-0.7-11.019,2.192
	l-32.569,32.734C489.924,348.917,504.916,365.871,504.916,365.871z"/>
<path style="fill:#005ECE;" d="M462.171,327.466c-0.032-0.025-0.061-0.048-0.092-0.072c-49.606-38.32-111.755-50.671-146.199-50.671
	c-2.028,0-4.13,0.096-6.261,0.233c2.167,2.401,4.26,4.947,6.268,7.64c16.17,21.692,25.074,50.372,25.074,80.759
	c0,0.174-0.009,0.345-0.009,0.518H453.87h51.047C504.916,365.871,489.924,348.917,462.171,327.466z M453.869,321.494
	c0.134,0.089,0.128,0.317,0,0.668V321.494z"/>
<pattern  id="SVGID_1_" xlink:href="#Unnamed_Pattern_8" patternTransform="matrix(1.1823 0 0 -1.1823 975.397 -18627.1484)">
</pattern>
<path style="fill:url(#SVGID_1_);" d="M320.736,365.353c0-36.403-14.705-68.104-36.276-84.233
	c-0.672,0.171-30.865,9.692-48.539,20.025c-30.584,17.879-47.191,40.941-47.191,64.208c0,0.173,0.009,0.345,0.012,0.518h131.987
	C320.73,365.698,320.736,365.527,320.736,365.353z M274.792,348.554c-8.194,0-14.837-6.643-14.837-14.837
	s6.643-14.837,14.837-14.837s14.836,6.643,14.836,14.837S282.986,348.554,274.792,348.554z"/>
<pattern  id="SVGID_2_" xlink:href="#Unnamed_Pattern_9" patternTransform="matrix(1.1823 0 0 -1.1823 975.397 -18627.1484)">
</pattern>
<path style="fill:url(#SVGID_2_);" d="M309.617,276.954l-0.004,0.001L309.617,276.954z"/>
<pattern  id="SVGID_3_" xlink:href="#Unnamed_Pattern_7" patternTransform="matrix(1.1823 0 0 -1.1823 975.397 -18627.1484)">
</pattern>
<polygon style="fill:url(#SVGID_3_);" points="284.46,281.12 284.46,281.12 284.461,281.12 "/>
<pattern  id="SVGID_4_" xlink:href="#Unnamed_Pattern_9" patternTransform="matrix(1.1823 0 0 -1.1823 975.397 -18627.1484)">
</pattern>
<polygon style="fill:url(#SVGID_4_);" points="284.46,281.12 284.46,281.12 284.461,281.12 "/>
<pattern  id="SVGID_5_" xlink:href="#Unnamed_Pattern_8" patternTransform="matrix(1.1823 0 0 -1.1823 975.397 -18627.1484)">
</pattern>
<circle style="fill:url(#SVGID_5_);" cx="274.789" cy="333.713" r="14.837"/>
<pattern  id="SVGID_6_" xlink:href="#Unnamed_Pattern_7" patternTransform="matrix(1.1823 0 0 -1.1823 975.397 -18627.1484)">
</pattern>
<circle style="fill:url(#SVGID_6_);" cx="274.789" cy="333.713" r="14.837"/>
<circle style="fill:#00479B;" cx="274.789" cy="333.713" r="14.837"/>
<pattern  id="SVGID_7_" xlink:href="#Unnamed_Pattern_8" patternTransform="matrix(1.1823 0 0 -1.1823 975.397 -18627.1484)">
</pattern>
<path style="fill:url(#SVGID_7_);" d="M453.869,321.494v0.668C453.997,321.811,454.001,321.583,453.869,321.494z"/>
<pattern  id="SVGID_8_" xlink:href="#Unnamed_Pattern_7" patternTransform="matrix(1.1823 0 0 -1.1823 975.397 -18627.1484)">
</pattern>
<path style="fill:url(#SVGID_8_);" d="M453.869,321.494v0.668C453.997,321.811,454.001,321.583,453.869,321.494z"/>
<pattern  id="SVGID_9_" xlink:href="#Unnamed_Pattern_34" patternTransform="matrix(1.1823 0 0 -1.1823 975.397 -18627.1484)">
</pattern>
<path style="fill:url(#SVGID_9_);" d="M464.476,405.478l30.263,30.497c2.891,2.891,7.241,3.757,11.017,2.192
	c3.778-1.565,6.242-5.251,6.242-9.341v-62.955h-7.083C491.853,382.818,470.894,400.603,464.476,405.478z"/>
<path style="fill:#DDB200;" d="M464.476,405.478l30.263,30.497c2.891,2.891,7.241,3.757,11.017,2.192
	c3.778-1.565,6.242-5.251,6.242-9.341v-62.955h-7.083C491.853,382.818,470.894,400.603,464.476,405.478z"/>
<path style="fill:#00479B;" d="M453.869,365.871H340.95c-0.1,30.195-8.987,58.674-25.065,80.241
	c-2.007,2.693-4.101,5.239-6.268,7.64c2.132,0.137,4.234,0.233,6.261,0.233c30.416,0,96.795-15.678,137.991-41.275v-0.648
	c0.083,0.228,0.125,0.416,0.131,0.566c3.654-2.276,7.13-4.621,10.342-7.049c0.041-0.032,0.091-0.07,0.134-0.102
	c6.418-4.876,27.376-22.66,40.44-39.608H453.869z"/>
<pattern  id="SVGID_10_" xlink:href="#Unnamed_Pattern_9" patternTransform="matrix(1.1823 0 0 -1.1823 975.397 -18627.1484)">
</pattern>
<polygon style="fill:url(#SVGID_10_);" points="309.617,453.752 309.617,453.752 309.614,453.752 "/>
<pattern  id="SVGID_11_" xlink:href="#Unnamed_Pattern_34" patternTransform="matrix(1.1823 0 0 -1.1823 975.397 -18627.1484)">
</pattern>
<polygon style="fill:url(#SVGID_11_);" points="309.617,453.752 309.617,453.752 309.614,453.752 "/>
<pattern  id="SVGID_12_" xlink:href="#Unnamed_Pattern_9" patternTransform="matrix(1.1823 0 0 -1.1823 975.397 -18627.1484)">
</pattern>
<path style="fill:url(#SVGID_12_);" d="M284.46,449.587l0.007,0.001L284.46,449.587z"/>
<pattern  id="SVGID_13_" xlink:href="#Unnamed_Pattern_34" patternTransform="matrix(1.1823 0 0 -1.1823 975.397 -18627.1484)">
</pattern>
<path style="fill:url(#SVGID_13_);" d="M284.46,449.587l0.007,0.001L284.46,449.587z"/>
<g>
	
		<pattern  id="SVGCleanerId_0_3_" xlink:href="#Unnamed_Pattern_8" patternTransform="matrix(1.1823 0 0 -1.1823 975.397 -18627.1484)">
	</pattern>
	<path id="SVGCleanerId_0" style="fill:url(#SVGCleanerId_0_3_);" d="M284.464,449.584c-0.001,0.001-0.002,0.001-0.002,0.002
		c0.002,0,0.005,0.001,0.007,0.001c0.082,0.021,0.163,0.039,0.245,0.059C284.629,449.627,284.545,449.606,284.464,449.584z"/>
</g>
<g>
	
		<pattern  id="SVGCleanerId_0_4_" xlink:href="#Unnamed_Pattern_9" patternTransform="matrix(1.1823 0 0 -1.1823 975.397 -18627.1484)">
	</pattern>
	<path id="SVGCleanerId_0_1_" style="fill:url(#SVGCleanerId_0_4_);" d="M284.464,449.584c-0.001,0.001-0.002,0.001-0.002,0.002
		c0.002,0,0.005,0.001,0.007,0.001c0.082,0.021,0.163,0.039,0.245,0.059C284.629,449.627,284.545,449.606,284.464,449.584z"/>
</g>
<g>
	
		<pattern  id="SVGCleanerId_0_5_" xlink:href="#Unnamed_Pattern_34" patternTransform="matrix(1.1823 0 0 -1.1823 975.397 -18627.1484)">
	</pattern>
	<path id="SVGCleanerId_0_2_" style="fill:url(#SVGCleanerId_0_5_);" d="M284.464,449.584c-0.001,0.001-0.002,0.001-0.002,0.002
		c0.002,0,0.005,0.001,0.007,0.001c0.082,0.021,0.163,0.039,0.245,0.059C284.629,449.627,284.545,449.606,284.464,449.584z"/>
</g>
<pattern  id="SVGID_14_" xlink:href="#Unnamed_Pattern_7" patternTransform="matrix(1.1823 0 0 -1.1823 975.397 -18627.1484)">
</pattern>
<path style="fill:url(#SVGID_14_);" d="M453.869,412.98c0.098-0.063,0.138-0.183,0.131-0.351c-0.044,0.027-0.087,0.054-0.131,0.082
	V412.98z"/>
<pattern  id="SVGID_15_" xlink:href="#Unnamed_Pattern_34" patternTransform="matrix(1.1823 0 0 -1.1823 975.397 -18627.1484)">
</pattern>
<path style="fill:url(#SVGID_15_);" d="M453.869,412.98c0.098-0.063,0.138-0.183,0.131-0.351c-0.044,0.027-0.087,0.054-0.131,0.082
	V412.98z"/>
<g>
	
		<pattern  id="SVGCleanerId_1_3_" xlink:href="#Unnamed_Pattern_8" patternTransform="matrix(1.1823 0 0 -1.1823 975.397 -18627.1484)">
	</pattern>
	<path id="SVGCleanerId_1" style="fill:url(#SVGCleanerId_1_3_);" d="M453.869,412.711c0.044-0.027,0.087-0.054,0.131-0.082
		c-0.006-0.15-0.048-0.338-0.131-0.566V412.711z"/>
</g>
<g>
	
		<pattern  id="SVGCleanerId_1_4_" xlink:href="#Unnamed_Pattern_7" patternTransform="matrix(1.1823 0 0 -1.1823 975.397 -18627.1484)">
	</pattern>
	<path id="SVGCleanerId_1_1_" style="fill:url(#SVGCleanerId_1_4_);" d="M453.869,412.711c0.044-0.027,0.087-0.054,0.131-0.082
		c-0.006-0.15-0.048-0.338-0.131-0.566V412.711z"/>
</g>
<g>
	
		<pattern  id="SVGCleanerId_1_5_" xlink:href="#Unnamed_Pattern_34" patternTransform="matrix(1.1823 0 0 -1.1823 975.397 -18627.1484)">
	</pattern>
	<path id="SVGCleanerId_1_2_" style="fill:url(#SVGCleanerId_1_5_);" d="M453.869,412.711c0.044-0.027,0.087-0.054,0.131-0.082
		c-0.006-0.15-0.048-0.338-0.131-0.566V412.711z"/>
</g>
<path style="fill:#DDB200;" d="M363.388,384.085v40.769l0,0c22.516,0,40.769-18.253,40.769-40.769l0,0H363.388z"/>
<path style="fill:#2488FF;" d="M320.736,365.353c0-36.403-14.705-68.104-36.276-84.233c-77.127,22.221-95.73,60.966-95.73,84.233
	c0,0.173,0.009,0.345,0.012,0.518h131.987C320.73,365.698,320.736,365.527,320.736,365.353z M274.792,348.554
	c-8.194,0-14.837-6.643-14.837-14.837s6.643-14.837,14.837-14.837s14.836,6.643,14.836,14.837S282.986,348.554,274.792,348.554z"/>
<path style="fill:#006DF0;" d="M320.73,365.871H188.742c-0.001,0.173-0.012,0.345-0.012,0.518c0,23.267,18.609,60.978,95.736,83.199
	c21.571-16.127,36.27-46.797,36.27-83.199C320.736,366.216,320.73,366.045,320.73,365.871z"/>
<path style="fill:#005FCD;" d="M327.281,365.871h-6.551c-0.139,36.181-14.799,67.662-36.267,83.714
	c0.083,0.021,9.686,2.414,25.151,4.167c0.001,0,0.002,0,0.004,0c2.167-2.401,4.26-4.947,6.268-7.64
	c16.077-21.568,24.963-50.047,25.065-80.241L327.281,365.871L327.281,365.871z"/>
<path style="fill:#006DF0;" d="M315.885,284.594c-2.007-2.693-4.101-5.239-6.268-7.64c-0.001,0-0.002,0-0.004,0
	c-4.908,0.318-15.043,1.668-25.152,4.165l0,0c21.571,16.127,36.276,47.83,36.276,84.233c0,0.174-0.006,0.345-0.007,0.518h6.551
	h13.669c0-0.173,0.009-0.345,0.009-0.518C340.96,334.967,332.055,306.286,315.885,284.594z"/>
<g>
</g>
<g>
</g>
<g>
</g>
<g>
</g>
<g>
</g>
<g>
</g>
<g>
</g>
<g>
</g>
<g>
</g>
<g>
</g>
<g>
</g>
<g>
</g>
<g>
</g>
<g>
</g>
<g>
</g>
</svg>
