<?xml version="1.0" encoding="iso-8859-1"?>
<!-- Generator: Adobe Illustrator 19.0.0, SVG Export Plug-In . SVG Version: 6.00 Build 0)  -->
<svg version="1.1" id="Capa_1" xmlns="http://www.w3.org/2000/svg" xmlns:xlink="http://www.w3.org/1999/xlink" x="0px" y="0px"
	 viewBox="0 0 512 512" style="enable-background:new 0 0 512 512;" xml:space="preserve">
<path style="fill:#0088FF;" d="M497,262.65l-0.601,14.399H15.601L15,262.65c-2.1-66,23.699-130.801,70.201-177.601
	C130.499,39.749,191.8,14.85,256,14.85s125.501,24.899,170.797,70.199C473.299,131.849,499.102,196.65,497,262.65z"/>
<path style="fill:#00A5FF;" d="M437.3,74.55C387.8,25.049,321.4,0.15,256,0.15S124.2,25.049,74.7,74.55
	C21,128.249-6,202.65,1.199,278.549c0.601,7.5,7.202,13.5,14.702,13.5h480.198c7.5,0,14.099-6,14.7-13.5
	C517.999,202.65,491.001,128.249,437.3,74.55z M256,30.15c52.8,0,106.601,18.6,148.898,55.499l-42.297,42.299
	C329.299,97.05,292,73.949,256,59.249c-23.699-9.901-47.401-15.899-69.901-17.999C208.9,33.75,232.301,30.15,256,30.15z M30,262.05
	c-0.601-26.1,3.3-51.601,11.1-76.199c2.401,23.699,9,48.898,20.099,75c0.3,0.599,0.901,0.599,1.201,1.199H30z M87.9,262.05
	c2.401-3.9,3.001-8.699,0.901-13.2C64.2,192.149,63.6,140.85,86.4,107.549L241.901,262.05H87.9z M107.401,86.25
	c36-24.6,92.199-21.601,148.599,5.099c28.801,13.5,57.599,32.999,84.6,57.9l-84.6,84.3L107.401,86.25z M270.099,262.05l92.501-91.5
	c25.8,27.9,46.802,58.799,60.601,90.3c0.3,0.599,0.601,0.899,0.901,1.199H270.099V262.05z M449.898,262.05
	c2.102-3.9,2.703-8.699,0.901-13.2c-15.3-35.099-38.701-69-66.899-99.6l42.3-42.3c37.5,42.9,57.601,98.099,55.8,155.099
	L449.898,262.05L449.898,262.05z"/>
<path style="fill:#136EF1;" d="M497,262.65l-0.601,14.399H256V14.85c64.2,0,125.501,24.899,170.797,70.199
	C473.299,131.849,499.102,196.65,497,262.65z"/>
<path style="fill:#0088FF;" d="M437.3,74.55C387.8,25.049,321.4,0.15,256,0.15v30c52.8,0,106.601,18.6,148.898,55.499
	l-42.297,42.299C329.299,97.05,292,73.949,256,59.249v32.1c28.801,13.5,57.599,32.999,84.6,57.9l-84.6,84.3v58.5h240.099
	c7.5,0,14.099-6,14.7-13.5C517.999,202.65,491.001,128.249,437.3,74.55z M270.099,262.05l92.501-91.5
	c25.8,27.9,46.802,58.799,60.601,90.3c0.3,0.599,0.601,0.899,0.901,1.199H270.099V262.05z M449.898,262.05
	c2.102-3.9,2.703-8.699,0.901-13.2c-15.3-35.099-38.701-69-66.899-99.6l42.3-42.3c37.5,42.9,57.601,98.099,55.8,155.099
	L449.898,262.05L449.898,262.05z"/>
<path style="fill:#FD003A;" d="M467,239.85H45c-24.901,0-45,20.099-45,45v181c0,24.899,20.099,46,45,46h422
	c24.902,0,45-21.101,45-46v-181C512,259.949,491.902,239.85,467,239.85z"/>
<path style="fill:#E50027;" d="M512,284.85v181c0,24.899-20.098,46-45,46H256v-272h211C491.902,239.85,512,259.949,512,284.85z"/>
<g>
	<path style="fill:#E1E4FB;" d="M135,450.85H75c-8.291,0-15-6.709-15-15v-121c0-19.773,30-19.854,30,0v106h45
		C154.773,420.85,154.854,450.85,135,450.85z"/>
	<path style="fill:#E1E4FB;" d="M181,435.85v-121c0-19.773,30-19.854,30,0v121C211,455.623,181,455.704,181,435.85z"/>
	<path style="fill:#E1E4FB;" d="M330.7,318.45l-30,121c-3.9,15-25.499,15-29.399,0l-30-121c-2.701-11.1,6-18.3,14.7-18.6
		c6.301,0,12.599,3.3,14.7,11.4l15.3,61.8l15.3-61.8C306.099,292.05,335.2,299.249,330.7,318.45z"/>
</g>
<g>
	<path style="fill:#C5C9F7;" d="M437,389.85c19.773,0,19.854-30,0-30h-45v-30h45c19.773,0,19.854-30,0-30h-60
		c-8.291,0-15,6.709-15,15v121c0,8.291,6.709,15,15,15h60c19.773,0,19.854-30,0-30h-45v-31H437z"/>
	<path style="fill:#C5C9F7;" d="M330.7,318.45l-30,121c-3.9,15-25.499,15-29.399,0L256,377.249V299.85c6.301,0,12.599,3.3,14.7,11.4
		l15.3,61.8l15.3-61.8C306.099,292.05,335.2,299.249,330.7,318.45z"/>
</g>
<g>
</g>
<g>
</g>
<g>
</g>
<g>
</g>
<g>
</g>
<g>
</g>
<g>
</g>
<g>
</g>
<g>
</g>
<g>
</g>
<g>
</g>
<g>
</g>
<g>
</g>
<g>
</g>
<g>
</g>
</svg>
