<?xml version="1.0" encoding="iso-8859-1"?>
<!-- Generator: Adobe Illustrator 19.0.0, SVG Export Plug-In . SVG Version: 6.00 Build 0)  -->
<svg version="1.1" id="Capa_1" xmlns="http://www.w3.org/2000/svg" xmlns:xlink="http://www.w3.org/1999/xlink" x="0px" y="0px"
	 viewBox="0 0 512 512" style="enable-background:new 0 0 512 512;" xml:space="preserve">
<path style="fill:#8CD9F4;" d="M256,53C145.54,53,53,145.54,53,256s92.54,203,203,203s203-92.54,203-203S366.46,53,256,53z"/>
<path style="fill:#FD3C65;" d="M256,196c-33.09,0-60,26.91-60,60s26.91,60,60,60s60-26.91,60-60S289.09,196,256,196z"/>
<path d="M176,126c5.52,0,10-4.48,10-10s-4.48-10-10-10s-10,4.48-10,10S170.48,126,176,126z"/>
<path d="M502,246h-33.243c-2.495-52.4-24.555-101.786-62.763-139.994S318.4,45.738,266,43.243V10c0-5.523-4.477-10-10-10
	s-10,4.477-10,10v33.243c-52.4,2.495-101.786,24.555-139.994,62.763S45.738,193.6,43.243,246H10c-5.523,0-10,4.477-10,10
	c0,5.523,4.477,10,10,10h33.243c2.495,52.4,24.555,101.786,62.763,139.994S193.6,466.262,246,468.757V502c0,5.523,4.477,10,10,10
	c5.523,0,10-4.477,10-10v-33.243c52.4-2.495,101.786-24.555,139.994-62.763S466.262,318.4,468.757,266H502c5.523,0,10-4.477,10-10
	S507.523,246,502,246z M448.727,246h-23.029C420.696,160.209,351.791,91.304,266,86.302V63.273
	C362.872,68.503,443.497,149.128,448.727,246z M246,63.273v23.034c-11.44,0.669-22.764,2.472-33.779,5.412
	c-5.336,1.424-8.507,6.904-7.083,12.24s6.904,8.507,12.24,7.083c9.335-2.491,18.926-4.065,28.622-4.708V136c0,5.523,4.477,10,10,10
	c5.523,0,10-4.477,10-10v-29.659c74.758,4.946,134.713,64.9,139.659,139.659H376c-5.523,0-10,4.477-10,10c0,5.523,4.477,10,10,10
	h29.659c-4.946,74.758-64.9,134.713-139.659,139.659V376c0-5.523-4.477-10-10-10s-10,4.477-10,10v29.659
	c-74.758-4.946-134.713-64.9-139.659-139.659H136c5.523,0,10-4.477,10-10s-4.477-10-10-10h-29.663
	c2.372-36.092,17.549-69.771,43.354-95.719c3.894-3.916,3.876-10.248-0.04-14.142c-3.917-3.894-10.248-3.877-14.142,0.04
	C105.951,165.902,88.699,204.584,86.301,246H63.273C68.503,149.128,149.128,68.503,246,63.273z M63.273,266h23.029
	C91.304,351.791,160.209,420.696,246,425.698v23.029C149.128,443.497,68.503,362.872,63.273,266z M266,448.727v-23.029
	c85.791-5.002,154.696-73.907,159.698-159.698h23.029C443.497,362.872,362.872,443.497,266,448.727z"/>
<path d="M176,266h10.726c4.399,30.609,28.666,54.875,59.274,59.274V336c0,5.523,4.477,10,10,10c5.523,0,10-4.477,10-10v-10.726
	c30.609-4.399,54.875-28.666,59.274-59.274H336c5.523,0,10-4.477,10-10s-4.477-10-10-10h-10.726
	c-4.399-30.609-28.666-54.875-59.274-59.274V176c0-5.523-4.477-10-10-10s-10,4.477-10,10v10.726
	c-30.609,4.399-54.875,28.666-59.274,59.274H176c-5.523,0-10,4.477-10,10C166,261.523,170.477,266,176,266z M207.006,266H246v38.994
	C226.437,301.007,210.993,285.563,207.006,266z M266,304.994V266h38.994C301.007,285.563,285.563,301.007,266,304.994z M304.994,246
	H266v-38.994C285.563,210.993,301.007,226.437,304.994,246z M246,207.006V246h-38.994C210.993,226.437,226.437,210.993,246,207.006z
	"/>
<g>
</g>
<g>
</g>
<g>
</g>
<g>
</g>
<g>
</g>
<g>
</g>
<g>
</g>
<g>
</g>
<g>
</g>
<g>
</g>
<g>
</g>
<g>
</g>
<g>
</g>
<g>
</g>
<g>
</g>
</svg>
